G04*
G04 #@! TF.GenerationSoftware,Altium Limited,Altium Designer,20.0.11 (256)*
G04*
G04 Layer_Color=65535*
%FSLAX25Y25*%
%MOIN*%
G70*
G01*
G75*
%ADD10C,0.01575*%
%ADD11C,0.00600*%
%ADD12C,0.00394*%
%ADD13C,0.00500*%
%ADD14C,0.00787*%
%ADD15C,0.01000*%
%ADD16C,0.00300*%
G36*
X42362Y33820D02*
X42469D01*
Y33712D01*
X42362D01*
Y33605D01*
X42254D01*
Y33712D01*
X42147D01*
Y33820D01*
X42254D01*
Y33927D01*
X42362D01*
Y33820D01*
D02*
G37*
G36*
X68604Y33059D02*
X68711D01*
Y32951D01*
X68819D01*
Y33059D01*
X68926D01*
Y32951D01*
X69034D01*
Y32844D01*
X69141D01*
Y32951D01*
X69249D01*
Y32844D01*
X69356D01*
Y32736D01*
X69678D01*
Y32629D01*
X69786D01*
Y32521D01*
X69893D01*
Y32414D01*
X70001D01*
Y32307D01*
X70323D01*
Y32199D01*
X70215D01*
Y32092D01*
X70323D01*
Y31984D01*
X70430D01*
Y31877D01*
X70538D01*
Y31769D01*
X70645D01*
Y31662D01*
Y31554D01*
Y31447D01*
X70753D01*
Y31340D01*
Y31232D01*
Y31125D01*
X70860D01*
Y31017D01*
Y30910D01*
Y30802D01*
X70753D01*
Y30910D01*
X70645D01*
Y30802D01*
X70538D01*
Y30695D01*
X70430D01*
Y30802D01*
X70323D01*
Y30695D01*
X70001D01*
Y30588D01*
X69893D01*
Y30695D01*
X69786D01*
Y30588D01*
X69678D01*
Y30480D01*
X69141D01*
Y30373D01*
X68819D01*
Y30265D01*
X68497D01*
Y30373D01*
Y30480D01*
Y30588D01*
X68389D01*
Y30695D01*
X68282D01*
Y30802D01*
X68389D01*
Y30910D01*
X68067D01*
Y31017D01*
X67959D01*
Y31125D01*
X67852D01*
Y31232D01*
X67744D01*
Y31125D01*
X67637D01*
Y31232D01*
X67530D01*
Y31125D01*
X67422D01*
Y31232D01*
X67315D01*
Y31125D01*
X66992D01*
Y31017D01*
X66885D01*
Y30910D01*
X66563D01*
Y30802D01*
X66670D01*
Y30695D01*
X66348D01*
Y30588D01*
X66455D01*
Y30480D01*
X66240D01*
Y30373D01*
Y30265D01*
X66133D01*
Y30158D01*
X66025D01*
Y30050D01*
X65918D01*
Y29943D01*
Y29836D01*
Y29728D01*
X65811D01*
Y29621D01*
X65703D01*
Y29513D01*
X65811D01*
Y29406D01*
X65703D01*
Y29298D01*
X65596D01*
Y29191D01*
Y29083D01*
Y28976D01*
X65488D01*
Y28868D01*
X65596D01*
Y28761D01*
X65488D01*
Y28654D01*
X65381D01*
Y28546D01*
X65488D01*
Y28439D01*
X65381D01*
Y28331D01*
X65273D01*
Y28224D01*
X65381D01*
Y28117D01*
X65273D01*
Y28009D01*
X65381D01*
Y27902D01*
X65273D01*
Y27794D01*
X65381D01*
Y27687D01*
X65273D01*
Y27579D01*
X65381D01*
Y27472D01*
X65273D01*
Y27364D01*
X65381D01*
Y27257D01*
X65273D01*
Y27150D01*
X65381D01*
Y27042D01*
X65273D01*
Y26935D01*
X65381D01*
Y26827D01*
X65273D01*
Y26720D01*
X65381D01*
Y26612D01*
X65273D01*
Y26505D01*
X65381D01*
Y26397D01*
X65488D01*
Y26290D01*
X65596D01*
Y26183D01*
X65703D01*
Y26075D01*
X66025D01*
Y25968D01*
X66133D01*
Y25860D01*
X66240D01*
Y25968D01*
X66133D01*
Y26075D01*
X66240D01*
Y25968D01*
X66348D01*
Y25860D01*
X66455D01*
Y25968D01*
X66563D01*
Y26075D01*
X66885D01*
Y26183D01*
X66992D01*
Y26075D01*
X67100D01*
Y26183D01*
X66992D01*
Y26290D01*
X67315D01*
Y26397D01*
X67207D01*
Y26505D01*
X67530D01*
Y26612D01*
X67422D01*
Y26720D01*
X67530D01*
Y26612D01*
X67637D01*
Y26505D01*
X67744D01*
Y26612D01*
X67637D01*
Y26720D01*
X67744D01*
Y26612D01*
X67852D01*
Y26505D01*
X67959D01*
Y26397D01*
X68067D01*
Y26290D01*
X68174D01*
Y26397D01*
X68067D01*
Y26505D01*
X68174D01*
Y26397D01*
X68282D01*
Y26290D01*
X68389D01*
Y26183D01*
X68497D01*
Y26290D01*
X68604D01*
Y26183D01*
X68711D01*
Y26075D01*
X69034D01*
Y25968D01*
X69141D01*
Y25860D01*
X69249D01*
Y25968D01*
X69356D01*
Y25860D01*
X69463D01*
Y25753D01*
X69356D01*
Y25645D01*
X69249D01*
Y25538D01*
X69141D01*
Y25431D01*
X69034D01*
Y25323D01*
X68926D01*
Y25216D01*
X68819D01*
Y25108D01*
X68497D01*
Y25001D01*
X68604D01*
Y24893D01*
X68282D01*
Y24786D01*
X68174D01*
Y24678D01*
X68067D01*
Y24571D01*
X67959D01*
Y24678D01*
X67852D01*
Y24571D01*
X67959D01*
Y24464D01*
X67852D01*
Y24571D01*
X67744D01*
Y24464D01*
X67422D01*
Y24356D01*
X67530D01*
Y24249D01*
X67422D01*
Y24356D01*
X67315D01*
Y24249D01*
X66777D01*
Y24141D01*
X66885D01*
Y24034D01*
X66777D01*
Y24141D01*
X66455D01*
Y24034D01*
X66348D01*
Y24141D01*
X66240D01*
Y24034D01*
X65918D01*
Y24141D01*
X65811D01*
Y24034D01*
X65488D01*
Y24141D01*
X65381D01*
Y24034D01*
X65273D01*
Y24141D01*
X65166D01*
Y24034D01*
X65058D01*
Y24141D01*
X64951D01*
Y24249D01*
X64414D01*
Y24356D01*
X64306D01*
Y24464D01*
X63984D01*
Y24571D01*
X63877D01*
Y24678D01*
X63769D01*
Y24786D01*
X63662D01*
Y24893D01*
X63554D01*
Y25001D01*
X63447D01*
Y25108D01*
X63340D01*
Y25216D01*
Y25323D01*
Y25431D01*
X63232D01*
Y25538D01*
X63125D01*
Y25645D01*
Y25753D01*
Y25860D01*
X63017D01*
Y25968D01*
Y26075D01*
Y26183D01*
X62910D01*
Y26290D01*
X63017D01*
Y26397D01*
X62910D01*
Y26505D01*
Y26612D01*
Y26720D01*
Y26827D01*
Y26935D01*
Y27042D01*
Y27150D01*
Y27257D01*
Y27364D01*
Y27472D01*
Y27579D01*
X63017D01*
Y27687D01*
X62910D01*
Y27794D01*
X63017D01*
Y27902D01*
X62910D01*
Y28009D01*
X63017D01*
Y28117D01*
X62910D01*
Y28224D01*
X63017D01*
Y28331D01*
X62910D01*
Y28439D01*
X63125D01*
Y28546D01*
Y28654D01*
X63232D01*
Y28761D01*
X63125D01*
Y28868D01*
X63232D01*
Y28976D01*
X63125D01*
Y29083D01*
X63232D01*
Y29191D01*
X63340D01*
Y29298D01*
X63447D01*
Y29406D01*
X63340D01*
Y29513D01*
X63447D01*
Y29621D01*
X63340D01*
Y29728D01*
X63447D01*
Y29836D01*
X63554D01*
Y29943D01*
X63662D01*
Y30050D01*
X63554D01*
Y30158D01*
X63662D01*
Y30265D01*
X63769D01*
Y30373D01*
X63877D01*
Y30480D01*
X63769D01*
Y30588D01*
X63877D01*
Y30695D01*
X63984D01*
Y30802D01*
X64091D01*
Y30910D01*
Y31017D01*
X64306D01*
Y31125D01*
X64199D01*
Y31232D01*
X64306D01*
Y31340D01*
X64414D01*
Y31447D01*
X64521D01*
Y31554D01*
X64629D01*
Y31662D01*
X64736D01*
Y31769D01*
X64844D01*
Y31877D01*
X64951D01*
Y31984D01*
X65058D01*
Y31877D01*
X65166D01*
Y31984D01*
X65058D01*
Y32092D01*
X65166D01*
Y32199D01*
X65273D01*
Y32092D01*
X65381D01*
Y32199D01*
X65273D01*
Y32307D01*
X65596D01*
Y32414D01*
X65703D01*
Y32521D01*
X66025D01*
Y32629D01*
X66133D01*
Y32736D01*
X66455D01*
Y32844D01*
X66563D01*
Y32736D01*
X66670D01*
Y32844D01*
X66563D01*
Y32951D01*
X66670D01*
Y32844D01*
X66777D01*
Y32951D01*
X67100D01*
Y33059D01*
X67207D01*
Y32951D01*
X67315D01*
Y33059D01*
X67422D01*
Y32951D01*
X67530D01*
Y33059D01*
X67637D01*
Y33166D01*
X67744D01*
Y33059D01*
X67852D01*
Y32951D01*
X67959D01*
Y33059D01*
X67852D01*
Y33166D01*
X67959D01*
Y33059D01*
X68067D01*
Y33166D01*
X68174D01*
Y33059D01*
X68282D01*
Y32951D01*
X68389D01*
Y33059D01*
X68282D01*
Y33166D01*
X68389D01*
Y33059D01*
X68497D01*
Y32951D01*
X68604D01*
Y33059D01*
X68497D01*
Y33166D01*
X68604D01*
Y33059D01*
D02*
G37*
G36*
X48191Y32844D02*
X48298D01*
Y32736D01*
X48406D01*
Y32629D01*
X48298D01*
Y32521D01*
X48191D01*
Y32414D01*
Y32307D01*
Y32199D01*
X48083D01*
Y32092D01*
X48191D01*
Y31984D01*
X48083D01*
Y31877D01*
X48191D01*
Y31769D01*
X48083D01*
Y31662D01*
X47976D01*
Y31554D01*
X47868D01*
Y31447D01*
X47976D01*
Y31340D01*
X47868D01*
Y31232D01*
X47976D01*
Y31125D01*
X47868D01*
Y31017D01*
X47976D01*
Y30910D01*
X47868D01*
Y30802D01*
X47761D01*
Y30695D01*
X47868D01*
Y30588D01*
X47761D01*
Y30480D01*
X47653D01*
Y30373D01*
X47761D01*
Y30265D01*
X47653D01*
Y30158D01*
X47761D01*
Y30050D01*
X47653D01*
Y29943D01*
X47546D01*
Y29836D01*
X47653D01*
Y29728D01*
X47546D01*
Y29836D01*
X47438D01*
Y29728D01*
X47546D01*
Y29621D01*
X47438D01*
Y29513D01*
X47546D01*
Y29406D01*
X47438D01*
Y29298D01*
X47546D01*
Y29191D01*
X47438D01*
Y29083D01*
Y28976D01*
Y28868D01*
X47331D01*
Y28761D01*
X47224D01*
Y28654D01*
X47331D01*
Y28546D01*
X47224D01*
Y28439D01*
X47331D01*
Y28331D01*
X47224D01*
Y28224D01*
X47116D01*
Y28117D01*
Y28009D01*
Y27902D01*
Y27794D01*
Y27687D01*
X47009D01*
Y27579D01*
Y27472D01*
Y27364D01*
X46901D01*
Y27257D01*
X46794D01*
Y27150D01*
X46901D01*
Y27042D01*
X46794D01*
Y26935D01*
X46687D01*
Y26827D01*
X46579D01*
Y26720D01*
X46687D01*
Y26612D01*
X46579D01*
Y26505D01*
X46472D01*
Y26397D01*
X46364D01*
Y26290D01*
X46472D01*
Y26183D01*
X46257D01*
Y26075D01*
Y25968D01*
X46149D01*
Y25860D01*
X46042D01*
Y25753D01*
X45934D01*
Y25645D01*
X45827D01*
Y25538D01*
X45720D01*
Y25431D01*
X45612D01*
Y25323D01*
X45505D01*
Y25216D01*
X45397D01*
Y25108D01*
X45290D01*
Y25001D01*
X45182D01*
Y24893D01*
X44860D01*
Y24786D01*
X44753D01*
Y24678D01*
X44645D01*
Y24571D01*
X44538D01*
Y24678D01*
X44430D01*
Y24571D01*
X44538D01*
Y24464D01*
X44430D01*
Y24571D01*
X44323D01*
Y24464D01*
X44215D01*
Y24356D01*
X44108D01*
Y24464D01*
X44001D01*
Y24356D01*
X43893D01*
Y24249D01*
X43786D01*
Y24356D01*
X43678D01*
Y24249D01*
X43356D01*
Y24141D01*
X43248D01*
Y24249D01*
X43141D01*
Y24141D01*
X43248D01*
Y24034D01*
X43141D01*
Y24141D01*
X43034D01*
Y24034D01*
X42926D01*
Y24141D01*
X42819D01*
Y24034D01*
X42711D01*
Y24141D01*
X42604D01*
Y24034D01*
X42281D01*
Y24141D01*
X42174D01*
Y24034D01*
X41852D01*
Y24141D01*
X41744D01*
Y24034D01*
X41637D01*
Y24141D01*
X41529D01*
Y24249D01*
X41422D01*
Y24141D01*
X41529D01*
Y24034D01*
X41422D01*
Y24141D01*
X41315D01*
Y24249D01*
X40777D01*
Y24356D01*
X40670D01*
Y24464D01*
X40348D01*
Y24571D01*
X40240D01*
Y24678D01*
X40133D01*
Y24786D01*
X40025D01*
Y24893D01*
X39918D01*
Y25001D01*
X39810D01*
Y25108D01*
X39703D01*
Y25216D01*
X39595D01*
Y25323D01*
X39488D01*
Y25431D01*
X39595D01*
Y25538D01*
X39488D01*
Y25645D01*
X39381D01*
Y25753D01*
X39273D01*
Y25860D01*
X39381D01*
Y25968D01*
X39273D01*
Y26075D01*
X39381D01*
Y26183D01*
X39273D01*
Y26290D01*
X39381D01*
Y26397D01*
X39273D01*
Y26505D01*
X39166D01*
Y26612D01*
X39273D01*
Y26720D01*
X39166D01*
Y26827D01*
X39273D01*
Y26935D01*
X39166D01*
Y27042D01*
X39273D01*
Y27150D01*
X39166D01*
Y27257D01*
X39273D01*
Y27364D01*
X39166D01*
Y27472D01*
X39273D01*
Y27579D01*
X39381D01*
Y27687D01*
X39273D01*
Y27794D01*
X39381D01*
Y27902D01*
X39273D01*
Y28009D01*
X39381D01*
Y28117D01*
X39273D01*
Y28224D01*
X39381D01*
Y28331D01*
X39273D01*
Y28439D01*
X39381D01*
Y28546D01*
X39488D01*
Y28654D01*
X39595D01*
Y28761D01*
X39488D01*
Y28868D01*
X39595D01*
Y28976D01*
X39488D01*
Y29083D01*
X39595D01*
Y29191D01*
Y29298D01*
Y29406D01*
X39703D01*
Y29298D01*
X39810D01*
Y29406D01*
X39703D01*
Y29513D01*
Y29621D01*
Y29728D01*
X39810D01*
Y29836D01*
X39703D01*
Y29943D01*
X39810D01*
Y30050D01*
X39703D01*
Y30158D01*
X39810D01*
Y30265D01*
X39918D01*
Y30373D01*
Y30480D01*
Y30588D01*
X40025D01*
Y30695D01*
X39918D01*
Y30802D01*
X40025D01*
Y30910D01*
Y31017D01*
Y31125D01*
X40133D01*
Y31232D01*
Y31340D01*
Y31447D01*
X40240D01*
Y31554D01*
X40133D01*
Y31662D01*
X40240D01*
Y31769D01*
Y31877D01*
Y31984D01*
X40348D01*
Y32092D01*
Y32199D01*
Y32307D01*
X40455D01*
Y32414D01*
X40348D01*
Y32521D01*
X40455D01*
Y32629D01*
Y32736D01*
Y32844D01*
X40562D01*
Y32736D01*
X40670D01*
Y32844D01*
X40562D01*
Y32951D01*
X40670D01*
Y32844D01*
X40777D01*
Y32736D01*
X40885D01*
Y32844D01*
X40777D01*
Y32951D01*
X40885D01*
Y32844D01*
X40992D01*
Y32736D01*
X41100D01*
Y32844D01*
X40992D01*
Y32951D01*
X41100D01*
Y32844D01*
X41207D01*
Y32951D01*
X41315D01*
Y32844D01*
X41422D01*
Y32736D01*
X41529D01*
Y32844D01*
X41422D01*
Y32951D01*
X41529D01*
Y32844D01*
X41637D01*
Y32736D01*
X41744D01*
Y32844D01*
X41637D01*
Y32951D01*
X41744D01*
Y32844D01*
X41852D01*
Y32736D01*
X41959D01*
Y32844D01*
X41852D01*
Y32951D01*
X41959D01*
Y32844D01*
X42067D01*
Y32951D01*
X42174D01*
Y32844D01*
X42281D01*
Y32736D01*
X42389D01*
Y32844D01*
X42281D01*
Y32951D01*
X42389D01*
Y32844D01*
X42496D01*
Y32736D01*
X42604D01*
Y32844D01*
X42496D01*
Y32951D01*
X42604D01*
Y32844D01*
X42711D01*
Y32736D01*
X42819D01*
Y32629D01*
X42711D01*
Y32521D01*
X42819D01*
Y32414D01*
X42711D01*
Y32307D01*
X42819D01*
Y32199D01*
X42711D01*
Y32092D01*
X42604D01*
Y31984D01*
X42711D01*
Y31877D01*
X42604D01*
Y31769D01*
X42496D01*
Y31662D01*
X42604D01*
Y31554D01*
X42496D01*
Y31447D01*
X42604D01*
Y31340D01*
X42496D01*
Y31232D01*
X42389D01*
Y31125D01*
X42281D01*
Y31017D01*
X42389D01*
Y30910D01*
X42281D01*
Y30802D01*
X42389D01*
Y30695D01*
X42281D01*
Y30588D01*
X42389D01*
Y30480D01*
X42281D01*
Y30373D01*
Y30265D01*
Y30158D01*
X42174D01*
Y30050D01*
X42067D01*
Y29943D01*
X42174D01*
Y29836D01*
X42067D01*
Y29728D01*
X42174D01*
Y29621D01*
X42067D01*
Y29513D01*
X41959D01*
Y29406D01*
Y29298D01*
Y29191D01*
Y29083D01*
Y28976D01*
X41852D01*
Y28868D01*
X41959D01*
Y28761D01*
X41852D01*
Y28654D01*
Y28546D01*
Y28439D01*
X41744D01*
Y28331D01*
X41637D01*
Y28224D01*
X41744D01*
Y28117D01*
X41637D01*
Y28009D01*
X41744D01*
Y27902D01*
X41637D01*
Y27794D01*
Y27687D01*
Y27579D01*
Y27472D01*
Y27364D01*
X41529D01*
Y27257D01*
Y27150D01*
Y27042D01*
X41637D01*
Y26935D01*
X41529D01*
Y26827D01*
X41637D01*
Y26720D01*
Y26612D01*
Y26505D01*
X41744D01*
Y26397D01*
X41637D01*
Y26290D01*
X41744D01*
Y26183D01*
X41852D01*
Y26075D01*
X41959D01*
Y26183D01*
X41852D01*
Y26290D01*
X41959D01*
Y26183D01*
X42067D01*
Y26075D01*
X42174D01*
Y25968D01*
X42281D01*
Y25860D01*
X42389D01*
Y25968D01*
X42281D01*
Y26075D01*
X42389D01*
Y25968D01*
X42496D01*
Y25860D01*
X42604D01*
Y25968D01*
X42496D01*
Y26075D01*
X42604D01*
Y25968D01*
X42711D01*
Y25860D01*
X42819D01*
Y25968D01*
X42926D01*
Y26075D01*
X43034D01*
Y25968D01*
X43141D01*
Y25860D01*
X43248D01*
Y25968D01*
X43141D01*
Y26075D01*
X43248D01*
Y25968D01*
X43356D01*
Y26075D01*
X43678D01*
Y26183D01*
X43571D01*
Y26290D01*
X43678D01*
Y26183D01*
X43786D01*
Y26290D01*
X43893D01*
Y26397D01*
X44001D01*
Y26505D01*
X44108D01*
Y26612D01*
X44001D01*
Y26720D01*
X44108D01*
Y26612D01*
X44215D01*
Y26720D01*
X44323D01*
Y26827D01*
X44215D01*
Y26935D01*
X44323D01*
Y27042D01*
X44430D01*
Y27150D01*
X44538D01*
Y27257D01*
X44430D01*
Y27364D01*
X44538D01*
Y27472D01*
X44645D01*
Y27579D01*
X44753D01*
Y27687D01*
X44645D01*
Y27794D01*
X44753D01*
Y27902D01*
Y28009D01*
Y28117D01*
X44860D01*
Y28009D01*
X44967D01*
Y28117D01*
X44860D01*
Y28224D01*
Y28331D01*
Y28439D01*
X44967D01*
Y28546D01*
X44860D01*
Y28654D01*
X44967D01*
Y28761D01*
X44860D01*
Y28868D01*
X44967D01*
Y28976D01*
X45075D01*
Y29083D01*
Y29191D01*
Y29298D01*
X45182D01*
Y29406D01*
X45075D01*
Y29513D01*
X45182D01*
Y29621D01*
Y29728D01*
Y29836D01*
X45290D01*
Y29943D01*
Y30050D01*
Y30158D01*
X45397D01*
Y30265D01*
X45290D01*
Y30373D01*
X45397D01*
Y30480D01*
X45290D01*
Y30588D01*
X45397D01*
Y30695D01*
X45505D01*
Y30802D01*
Y30910D01*
Y31017D01*
X45612D01*
Y31125D01*
X45505D01*
Y31232D01*
X45612D01*
Y31340D01*
Y31447D01*
Y31554D01*
X45720D01*
Y31662D01*
Y31769D01*
Y31877D01*
X45827D01*
Y31984D01*
X45720D01*
Y32092D01*
X45827D01*
Y32199D01*
X45720D01*
Y32307D01*
X45827D01*
Y32414D01*
X45934D01*
Y32521D01*
X45827D01*
Y32629D01*
X45934D01*
Y32736D01*
X46042D01*
Y32844D01*
X45934D01*
Y32951D01*
X46042D01*
Y32844D01*
X46149D01*
Y32736D01*
X46257D01*
Y32844D01*
X46149D01*
Y32951D01*
X46257D01*
Y32844D01*
X46364D01*
Y32951D01*
X46472D01*
Y32844D01*
X46579D01*
Y32736D01*
X46687D01*
Y32844D01*
X46579D01*
Y32951D01*
X46687D01*
Y32844D01*
X46794D01*
Y32736D01*
X46901D01*
Y32844D01*
X46794D01*
Y32951D01*
X46901D01*
Y32844D01*
X47009D01*
Y32736D01*
X47116D01*
Y32844D01*
X47009D01*
Y32951D01*
X47116D01*
Y32844D01*
X47224D01*
Y32951D01*
X47331D01*
Y32844D01*
X47438D01*
Y32736D01*
X47546D01*
Y32844D01*
X47438D01*
Y32951D01*
X47546D01*
Y32844D01*
X47653D01*
Y32736D01*
X47761D01*
Y32844D01*
X47653D01*
Y32951D01*
X47761D01*
Y32844D01*
X47868D01*
Y32736D01*
X47976D01*
Y32844D01*
X47868D01*
Y32951D01*
X47976D01*
Y32844D01*
X48083D01*
Y32951D01*
X48191D01*
Y32844D01*
D02*
G37*
G36*
X57215D02*
X57323D01*
Y32736D01*
X57430D01*
Y32844D01*
X57538D01*
Y32736D01*
X58075D01*
Y32629D01*
X58182D01*
Y32521D01*
X58505D01*
Y32414D01*
X58612D01*
Y32307D01*
X58720D01*
Y32199D01*
X58827D01*
Y32092D01*
X58934D01*
Y31984D01*
Y31877D01*
X59149D01*
Y31769D01*
X59042D01*
Y31662D01*
X59149D01*
Y31554D01*
X59042D01*
Y31447D01*
X59257D01*
Y31340D01*
Y31232D01*
Y31125D01*
Y31017D01*
Y30910D01*
Y30802D01*
Y30695D01*
Y30588D01*
Y30480D01*
Y30373D01*
X59149D01*
Y30265D01*
X59042D01*
Y30158D01*
X59149D01*
Y30050D01*
X59042D01*
Y29943D01*
X58934D01*
Y29836D01*
X58827D01*
Y29728D01*
X58934D01*
Y29621D01*
X58827D01*
Y29513D01*
X58720D01*
Y29406D01*
X58612D01*
Y29298D01*
X58505D01*
Y29191D01*
X58182D01*
Y29083D01*
X58075D01*
Y28976D01*
X57753D01*
Y28868D01*
X57645D01*
Y28761D01*
X57538D01*
Y28654D01*
X57860D01*
Y28546D01*
X57968D01*
Y28439D01*
X58075D01*
Y28331D01*
X58182D01*
Y28224D01*
X58290D01*
Y28117D01*
X58397D01*
Y28009D01*
X58505D01*
Y27902D01*
X58397D01*
Y27794D01*
X58505D01*
Y27687D01*
X58612D01*
Y27579D01*
X58720D01*
Y27472D01*
X58612D01*
Y27579D01*
X58505D01*
Y27472D01*
X58612D01*
Y27364D01*
X58505D01*
Y27257D01*
X58612D01*
Y27150D01*
X58505D01*
Y27042D01*
X58397D01*
Y26935D01*
X58505D01*
Y26827D01*
X58397D01*
Y26720D01*
X58505D01*
Y26612D01*
X58397D01*
Y26505D01*
X58290D01*
Y26397D01*
X58182D01*
Y26290D01*
X58290D01*
Y26183D01*
X58182D01*
Y26075D01*
X58075D01*
Y25968D01*
X57968D01*
Y25860D01*
X58075D01*
Y25753D01*
X57968D01*
Y25645D01*
X57860D01*
Y25538D01*
X57753D01*
Y25431D01*
X57645D01*
Y25323D01*
X57538D01*
Y25216D01*
X57430D01*
Y25108D01*
X57108D01*
Y25001D01*
X57001D01*
Y24893D01*
X56893D01*
Y24786D01*
X56786D01*
Y24893D01*
X56678D01*
Y24786D01*
X56786D01*
Y24678D01*
X56678D01*
Y24786D01*
X56571D01*
Y24678D01*
X56463D01*
Y24571D01*
X56356D01*
Y24678D01*
X56248D01*
Y24571D01*
X56356D01*
Y24464D01*
X56248D01*
Y24571D01*
X56141D01*
Y24464D01*
X55819D01*
Y24356D01*
X55711D01*
Y24464D01*
X55604D01*
Y24356D01*
X55496D01*
Y24464D01*
X55389D01*
Y24356D01*
X55496D01*
Y24249D01*
X55389D01*
Y24356D01*
X55282D01*
Y24249D01*
X55174D01*
Y24356D01*
X55067D01*
Y24249D01*
X54959D01*
Y24356D01*
X54852D01*
Y24249D01*
X54744D01*
Y24356D01*
X54637D01*
Y24249D01*
X54530D01*
Y24356D01*
X54422D01*
Y24249D01*
X54100D01*
Y24356D01*
X53992D01*
Y24249D01*
X53670D01*
Y24356D01*
X53562D01*
Y24249D01*
X53240D01*
Y24356D01*
X53133D01*
Y24249D01*
X53025D01*
Y24356D01*
X52918D01*
Y24249D01*
X52811D01*
Y24356D01*
X52703D01*
Y24249D01*
X52381D01*
Y24356D01*
X52273D01*
Y24249D01*
X51951D01*
Y24356D01*
X51844D01*
Y24249D01*
X51521D01*
Y24356D01*
X51414D01*
Y24464D01*
X51306D01*
Y24571D01*
X51414D01*
Y24678D01*
X51521D01*
Y24786D01*
X51414D01*
Y24893D01*
X51521D01*
Y25001D01*
X51629D01*
Y25108D01*
X51521D01*
Y25216D01*
X51629D01*
Y25323D01*
X51521D01*
Y25431D01*
X51629D01*
Y25538D01*
Y25645D01*
Y25753D01*
X51736D01*
Y25860D01*
X51844D01*
Y25968D01*
X51736D01*
Y26075D01*
X51844D01*
Y26183D01*
X51736D01*
Y26290D01*
X51844D01*
Y26397D01*
Y26505D01*
Y26612D01*
X51951D01*
Y26720D01*
Y26827D01*
Y26935D01*
X52058D01*
Y27042D01*
X51951D01*
Y27150D01*
X52058D01*
Y27257D01*
Y27364D01*
Y27472D01*
X52166D01*
Y27579D01*
Y27687D01*
Y27794D01*
X52273D01*
Y27902D01*
X52166D01*
Y28009D01*
X52273D01*
Y28117D01*
Y28224D01*
Y28331D01*
X52381D01*
Y28439D01*
Y28546D01*
Y28654D01*
X52488D01*
Y28761D01*
X52381D01*
Y28868D01*
X52488D01*
Y28976D01*
Y29083D01*
Y29191D01*
X52596D01*
Y29298D01*
X52703D01*
Y29406D01*
X52596D01*
Y29513D01*
X52703D01*
Y29621D01*
X52596D01*
Y29728D01*
X52703D01*
Y29836D01*
Y29943D01*
Y30050D01*
X52596D01*
Y30158D01*
X52703D01*
Y30050D01*
X52811D01*
Y30158D01*
Y30265D01*
Y30373D01*
X52918D01*
Y30480D01*
X52811D01*
Y30588D01*
X52918D01*
Y30695D01*
X52811D01*
Y30802D01*
X52918D01*
Y30910D01*
X53025D01*
Y31017D01*
X52918D01*
Y31125D01*
X53025D01*
Y31232D01*
X53133D01*
Y31340D01*
X53025D01*
Y31447D01*
X53133D01*
Y31554D01*
X53025D01*
Y31662D01*
X53133D01*
Y31769D01*
X53025D01*
Y31877D01*
X53133D01*
Y31984D01*
X53240D01*
Y32092D01*
X53348D01*
Y32199D01*
X53240D01*
Y32307D01*
X53348D01*
Y32414D01*
X53240D01*
Y32521D01*
X53348D01*
Y32629D01*
Y32736D01*
Y32844D01*
X53455D01*
Y32736D01*
X53562D01*
Y32844D01*
X53455D01*
Y32951D01*
X53562D01*
Y32844D01*
X53670D01*
Y32736D01*
X53777D01*
Y32844D01*
X53670D01*
Y32951D01*
X53777D01*
Y32844D01*
X53885D01*
Y32736D01*
X53992D01*
Y32844D01*
X53885D01*
Y32951D01*
X53992D01*
Y32844D01*
X54100D01*
Y32951D01*
X54207D01*
Y32844D01*
X54315D01*
Y32736D01*
X54422D01*
Y32844D01*
X54315D01*
Y32951D01*
X54422D01*
Y32844D01*
X54530D01*
Y32736D01*
X54637D01*
Y32844D01*
X54530D01*
Y32951D01*
X54637D01*
Y32844D01*
X54744D01*
Y32736D01*
X54852D01*
Y32844D01*
X54744D01*
Y32951D01*
X54852D01*
Y32844D01*
X54959D01*
Y32951D01*
X55067D01*
Y32844D01*
X55174D01*
Y32736D01*
X55282D01*
Y32844D01*
X55174D01*
Y32951D01*
X55282D01*
Y32844D01*
X55389D01*
Y32736D01*
X55496D01*
Y32844D01*
X55389D01*
Y32951D01*
X55496D01*
Y32844D01*
X55604D01*
Y32736D01*
X55711D01*
Y32844D01*
X55604D01*
Y32951D01*
X55711D01*
Y32844D01*
X55819D01*
Y32951D01*
X55926D01*
Y32844D01*
X56034D01*
Y32736D01*
X56141D01*
Y32844D01*
X56034D01*
Y32951D01*
X56141D01*
Y32844D01*
X56248D01*
Y32736D01*
X56356D01*
Y32844D01*
X56248D01*
Y32951D01*
X56356D01*
Y32844D01*
X56463D01*
Y32736D01*
X56571D01*
Y32844D01*
X56463D01*
Y32951D01*
X56571D01*
Y32844D01*
X56678D01*
Y32951D01*
X56786D01*
Y32844D01*
X56893D01*
Y32736D01*
X57001D01*
Y32844D01*
X56893D01*
Y32951D01*
X57001D01*
Y32844D01*
X57108D01*
Y32736D01*
X57215D01*
Y32844D01*
X57108D01*
Y32951D01*
X57215D01*
Y32844D01*
D02*
G37*
G36*
X80100Y32736D02*
X80207D01*
Y32629D01*
X80100D01*
Y32521D01*
X80207D01*
Y32414D01*
X80100D01*
Y32307D01*
X79993D01*
Y32199D01*
X79885D01*
Y32092D01*
X79993D01*
Y31984D01*
X79885D01*
Y31877D01*
X79778D01*
Y31769D01*
X79670D01*
Y31662D01*
Y31554D01*
Y31447D01*
X79563D01*
Y31340D01*
X79455D01*
Y31232D01*
X79563D01*
Y31125D01*
X79240D01*
Y31017D01*
X79348D01*
Y30910D01*
X79240D01*
Y30802D01*
X79133D01*
Y30695D01*
Y30588D01*
Y30480D01*
X79026D01*
Y30373D01*
X78918D01*
Y30265D01*
X78811D01*
Y30158D01*
X78918D01*
Y30050D01*
X78811D01*
Y29943D01*
X78703D01*
Y29836D01*
X78596D01*
Y29728D01*
X78703D01*
Y29621D01*
X78596D01*
Y29513D01*
X78488D01*
Y29406D01*
X78381D01*
Y29298D01*
X78488D01*
Y29191D01*
X78273D01*
Y29083D01*
Y28976D01*
X78166D01*
Y28868D01*
Y28761D01*
X78059D01*
Y28654D01*
Y28546D01*
X77951D01*
Y28439D01*
X77844D01*
Y28331D01*
X77736D01*
Y28224D01*
X77844D01*
Y28117D01*
X77736D01*
Y28009D01*
X77629D01*
Y27902D01*
X77521D01*
Y27794D01*
Y27687D01*
X77414D01*
Y27579D01*
Y27472D01*
X77306D01*
Y27364D01*
X77199D01*
Y27257D01*
X77092D01*
Y27150D01*
X77199D01*
Y27042D01*
X77092D01*
Y26935D01*
X76984D01*
Y26827D01*
X76877D01*
Y26720D01*
Y26612D01*
X76769D01*
Y26505D01*
Y26397D01*
X76662D01*
Y26290D01*
X76554D01*
Y26183D01*
X76447D01*
Y26075D01*
X76554D01*
Y25968D01*
X76340D01*
Y25860D01*
Y25753D01*
X76232D01*
Y25645D01*
X76125D01*
Y25538D01*
X76017D01*
Y25431D01*
X76125D01*
Y25323D01*
X76017D01*
Y25216D01*
X75910D01*
Y25108D01*
X75802D01*
Y25001D01*
X75910D01*
Y24893D01*
X75802D01*
Y25001D01*
X75695D01*
Y24893D01*
X75587D01*
Y24786D01*
X75695D01*
Y24678D01*
X75587D01*
Y24571D01*
X75480D01*
Y24678D01*
X75373D01*
Y24571D01*
X75480D01*
Y24464D01*
X75373D01*
Y24356D01*
X75265D01*
Y24249D01*
X75158D01*
Y24141D01*
X75265D01*
Y24034D01*
X75158D01*
Y23926D01*
X75050D01*
Y23819D01*
X74943D01*
Y23711D01*
Y23604D01*
X74728D01*
Y23497D01*
X74835D01*
Y23389D01*
X74728D01*
Y23282D01*
X74620D01*
Y23174D01*
X74513D01*
Y23067D01*
X74406D01*
Y22959D01*
X74298D01*
Y22852D01*
X74406D01*
Y22745D01*
X74298D01*
Y22637D01*
X74191D01*
Y22530D01*
X74083D01*
Y22422D01*
X74191D01*
Y22315D01*
X74083D01*
Y22422D01*
X73976D01*
Y22315D01*
X73868D01*
Y22207D01*
X73976D01*
Y22100D01*
X73868D01*
Y21993D01*
X73976D01*
Y21885D01*
X73868D01*
Y21778D01*
X73976D01*
Y21670D01*
X73868D01*
Y21563D01*
X73976D01*
Y21455D01*
X73868D01*
Y21348D01*
X73976D01*
Y21240D01*
X73868D01*
Y21133D01*
X73976D01*
Y21025D01*
X73868D01*
Y20918D01*
X73976D01*
Y20811D01*
X73868D01*
Y20918D01*
X73761D01*
Y20811D01*
X73868D01*
Y20703D01*
X73761D01*
Y20596D01*
X73654D01*
Y20488D01*
X73761D01*
Y20381D01*
X73654D01*
Y20274D01*
X73546D01*
Y20166D01*
X73439D01*
Y20059D01*
X73546D01*
Y19951D01*
X73439D01*
Y19844D01*
X73331D01*
Y19951D01*
X73224D01*
Y20059D01*
X73116D01*
Y20166D01*
X73009D01*
Y20274D01*
X73116D01*
Y20381D01*
X73009D01*
Y20488D01*
X72901D01*
Y20596D01*
X72579D01*
Y20488D01*
X72687D01*
Y20381D01*
X72364D01*
Y20274D01*
X72257D01*
Y20166D01*
X72149D01*
Y20059D01*
X72257D01*
Y19951D01*
X72149D01*
Y19844D01*
X72042D01*
Y19736D01*
X71934D01*
Y19629D01*
X72042D01*
Y19521D01*
X71934D01*
Y19414D01*
X72042D01*
Y19307D01*
X72149D01*
Y19199D01*
X72472D01*
Y19092D01*
X72579D01*
Y18984D01*
X72901D01*
Y18877D01*
X73009D01*
Y18769D01*
X73331D01*
Y18662D01*
X73439D01*
Y18554D01*
X73761D01*
Y18447D01*
X73868D01*
Y18339D01*
X74191D01*
Y18232D01*
X74298D01*
Y18125D01*
X74728D01*
Y18017D01*
Y17910D01*
X75050D01*
Y17802D01*
X75158D01*
Y17695D01*
X75265D01*
Y17587D01*
X75373D01*
Y17695D01*
X75480D01*
Y17587D01*
X75587D01*
Y17480D01*
X75695D01*
Y17373D01*
X75802D01*
Y17265D01*
X76125D01*
Y17158D01*
X76232D01*
Y17050D01*
X76554D01*
Y16943D01*
X76662D01*
Y16835D01*
X76769D01*
Y16728D01*
X76877D01*
Y16621D01*
X77199D01*
Y16513D01*
X77306D01*
Y16406D01*
X77414D01*
Y16298D01*
X77521D01*
Y16191D01*
X77629D01*
Y16298D01*
X77521D01*
Y16406D01*
X77629D01*
Y16298D01*
X77736D01*
Y16191D01*
X77844D01*
Y16083D01*
X77951D01*
Y15976D01*
X78273D01*
Y15868D01*
X78381D01*
Y15761D01*
X78488D01*
Y15654D01*
X78596D01*
Y15546D01*
X78703D01*
Y15439D01*
X78811D01*
Y15331D01*
X79133D01*
Y15224D01*
X79240D01*
Y15116D01*
X79348D01*
Y15009D01*
X79455D01*
Y14901D01*
X79563D01*
Y14794D01*
X79670D01*
Y14687D01*
X79993D01*
Y14579D01*
X80100D01*
Y14472D01*
X80207D01*
Y14364D01*
X80315D01*
Y14257D01*
X80422D01*
Y14149D01*
X80530D01*
Y14042D01*
X80637D01*
Y13935D01*
X80744D01*
Y13827D01*
X81067D01*
Y13720D01*
X81174D01*
Y13612D01*
X81282D01*
Y13505D01*
X81389D01*
Y13397D01*
X81497D01*
Y13290D01*
X81604D01*
Y13183D01*
X81712D01*
Y13075D01*
X81819D01*
Y12968D01*
X81926D01*
Y12860D01*
X82034D01*
Y12753D01*
X82141D01*
Y12645D01*
X82249D01*
Y12538D01*
X82356D01*
Y12430D01*
X82464D01*
Y12323D01*
X82571D01*
Y12216D01*
X82678D01*
Y12108D01*
X82786D01*
Y12001D01*
X82893D01*
Y11893D01*
X83001D01*
Y11786D01*
X83108D01*
Y11678D01*
X83216D01*
Y11571D01*
X83323D01*
Y11463D01*
X83430D01*
Y11356D01*
X83538D01*
Y11249D01*
X83645D01*
Y11141D01*
X83753D01*
Y11034D01*
X83860D01*
Y10926D01*
X83968D01*
Y10819D01*
X84075D01*
Y10711D01*
X84183D01*
Y10604D01*
X84290D01*
Y10497D01*
X84183D01*
Y10604D01*
X84075D01*
Y10711D01*
X83968D01*
Y10819D01*
X83860D01*
Y10926D01*
X83753D01*
Y11034D01*
X83645D01*
Y11141D01*
X83323D01*
Y11249D01*
X83430D01*
Y11356D01*
X83108D01*
Y11463D01*
Y11571D01*
X82893D01*
Y11678D01*
Y11786D01*
X82678D01*
Y11893D01*
X82571D01*
Y12001D01*
X82464D01*
Y12108D01*
X82356D01*
Y12216D01*
X82249D01*
Y12323D01*
X82141D01*
Y12430D01*
X82034D01*
Y12538D01*
X81926D01*
Y12645D01*
X81819D01*
Y12753D01*
X81712D01*
Y12860D01*
X81389D01*
Y12968D01*
X81497D01*
Y13075D01*
X81174D01*
Y13183D01*
X81067D01*
Y13290D01*
X80959D01*
Y13397D01*
X80852D01*
Y13505D01*
X80744D01*
Y13612D01*
X80637D01*
Y13720D01*
X80530D01*
Y13827D01*
X80422D01*
Y13935D01*
X80100D01*
Y14042D01*
X79993D01*
Y14149D01*
X79885D01*
Y14257D01*
X79778D01*
Y14364D01*
X79670D01*
Y14472D01*
X79563D01*
Y14579D01*
X79455D01*
Y14472D01*
X79563D01*
Y14364D01*
X79455D01*
Y14472D01*
X79348D01*
Y14579D01*
X79240D01*
Y14687D01*
X79133D01*
Y14794D01*
X79026D01*
Y14901D01*
X78918D01*
Y15009D01*
X78596D01*
Y15116D01*
X78488D01*
Y15224D01*
X78381D01*
Y15331D01*
X78273D01*
Y15439D01*
X77951D01*
Y15546D01*
X77844D01*
Y15654D01*
X77736D01*
Y15761D01*
X77629D01*
Y15868D01*
X77306D01*
Y15976D01*
X77199D01*
Y16083D01*
X77092D01*
Y16191D01*
X76984D01*
Y16298D01*
X76877D01*
Y16191D01*
X76984D01*
Y16083D01*
X76877D01*
Y16191D01*
X76769D01*
Y16298D01*
X76662D01*
Y16406D01*
X76554D01*
Y16513D01*
X76232D01*
Y16621D01*
X76125D01*
Y16728D01*
X76017D01*
Y16835D01*
X75910D01*
Y16943D01*
X75587D01*
Y17050D01*
X75480D01*
Y17158D01*
X75158D01*
Y17050D01*
X75265D01*
Y16943D01*
X75373D01*
Y16835D01*
X75480D01*
Y16728D01*
X75373D01*
Y16835D01*
X75265D01*
Y16943D01*
X75158D01*
Y17050D01*
X75050D01*
Y17158D01*
X74943D01*
Y17265D01*
X75050D01*
Y17373D01*
X74728D01*
Y17480D01*
X74620D01*
Y17587D01*
X74513D01*
Y17695D01*
X74406D01*
Y17587D01*
X74298D01*
Y17695D01*
X74191D01*
Y17802D01*
X74083D01*
Y17910D01*
X73976D01*
Y18017D01*
X73868D01*
Y17910D01*
X73976D01*
Y17802D01*
X73868D01*
Y17910D01*
X73761D01*
Y18017D01*
X73654D01*
Y18125D01*
X73546D01*
Y18017D01*
X73439D01*
Y18125D01*
X73331D01*
Y18232D01*
X73009D01*
Y18339D01*
X72901D01*
Y18447D01*
X72579D01*
Y18554D01*
X72472D01*
Y18662D01*
X72149D01*
Y18769D01*
X72042D01*
Y18877D01*
X71505D01*
Y18769D01*
X71612D01*
Y18662D01*
X71505D01*
Y18554D01*
X71397D01*
Y18447D01*
X71290D01*
Y18339D01*
X71397D01*
Y18232D01*
X71290D01*
Y18125D01*
X71183D01*
Y18017D01*
X71075D01*
Y17910D01*
Y17802D01*
Y17695D01*
X70968D01*
Y17587D01*
X70860D01*
Y17480D01*
X70968D01*
Y17373D01*
X70860D01*
Y17265D01*
X70753D01*
Y17373D01*
X70645D01*
Y17480D01*
X70753D01*
Y17587D01*
Y17695D01*
X70860D01*
Y17802D01*
Y17910D01*
X70968D01*
Y18017D01*
X70860D01*
Y18125D01*
X70968D01*
Y18232D01*
X71075D01*
Y18339D01*
Y18447D01*
Y18554D01*
X71183D01*
Y18662D01*
Y18769D01*
Y18877D01*
X71290D01*
Y18984D01*
X71397D01*
Y19092D01*
X71290D01*
Y19199D01*
X71183D01*
Y19092D01*
X71075D01*
Y19199D01*
X70968D01*
Y19307D01*
X70645D01*
Y19414D01*
X70538D01*
Y19521D01*
X70430D01*
Y19414D01*
X70538D01*
Y19307D01*
X70430D01*
Y19414D01*
X70323D01*
Y19521D01*
X70215D01*
Y19414D01*
X70323D01*
Y19307D01*
X70001D01*
Y19199D01*
X70108D01*
Y19092D01*
X70001D01*
Y19199D01*
X69893D01*
Y19092D01*
X69786D01*
Y18984D01*
X69678D01*
Y18877D01*
X69356D01*
Y18769D01*
X69249D01*
Y18662D01*
X69141D01*
Y18554D01*
X69034D01*
Y18447D01*
X68711D01*
Y18339D01*
X68604D01*
Y18232D01*
X68497D01*
Y18125D01*
X68389D01*
Y18232D01*
X68282D01*
Y18339D01*
X68389D01*
Y18447D01*
X68497D01*
Y18554D01*
X68604D01*
Y18662D01*
X68711D01*
Y18769D01*
X69034D01*
Y18877D01*
X68926D01*
Y18984D01*
X69249D01*
Y19092D01*
X69356D01*
Y19199D01*
X69463D01*
Y19307D01*
X69571D01*
Y19199D01*
X69678D01*
Y19307D01*
X69571D01*
Y19414D01*
X69893D01*
Y19521D01*
X70001D01*
Y19629D01*
X69893D01*
Y19736D01*
X69571D01*
Y19844D01*
X69463D01*
Y19951D01*
X69356D01*
Y19844D01*
X69463D01*
Y19736D01*
X69356D01*
Y19844D01*
X69249D01*
Y19951D01*
X69141D01*
Y20059D01*
X69034D01*
Y19951D01*
X68926D01*
Y20059D01*
X68819D01*
Y20166D01*
X68711D01*
Y20059D01*
X68604D01*
Y20166D01*
X68497D01*
Y20274D01*
X68389D01*
Y20166D01*
X68282D01*
Y20274D01*
X68174D01*
Y20381D01*
X67852D01*
Y20488D01*
X67530D01*
Y20596D01*
X67207D01*
Y20703D01*
X67100D01*
Y20596D01*
X66992D01*
Y20703D01*
X66885D01*
Y20811D01*
X66563D01*
Y20918D01*
X66455D01*
Y20811D01*
X66348D01*
Y20918D01*
X66240D01*
Y21025D01*
X66133D01*
Y20918D01*
X66240D01*
Y20811D01*
X66133D01*
Y20918D01*
X66025D01*
Y21025D01*
X65488D01*
Y21133D01*
X65381D01*
Y21240D01*
X65273D01*
Y21133D01*
X65381D01*
Y21025D01*
X65273D01*
Y21133D01*
X65166D01*
Y21240D01*
X65058D01*
Y21133D01*
X65166D01*
Y21025D01*
X65058D01*
Y21133D01*
X64951D01*
Y21240D01*
X64844D01*
Y21348D01*
X64736D01*
Y21240D01*
X64844D01*
Y21133D01*
X64951D01*
Y21025D01*
X64844D01*
Y21133D01*
X64736D01*
Y21240D01*
X64629D01*
Y21348D01*
X64521D01*
Y21455D01*
X64414D01*
Y21348D01*
X64521D01*
Y21240D01*
X64629D01*
Y21133D01*
X64736D01*
Y21025D01*
X64629D01*
Y21133D01*
X64521D01*
Y21240D01*
X64414D01*
Y21348D01*
X64306D01*
Y21455D01*
X63984D01*
Y21563D01*
X63877D01*
Y21670D01*
X63769D01*
Y21563D01*
X63877D01*
Y21455D01*
X63769D01*
Y21563D01*
X63662D01*
Y21670D01*
X63554D01*
Y21563D01*
X63447D01*
Y21670D01*
X63340D01*
Y21563D01*
X63232D01*
Y21670D01*
X63125D01*
Y21563D01*
X63017D01*
Y21670D01*
X62910D01*
Y21563D01*
X63017D01*
Y21455D01*
X63125D01*
Y21348D01*
X63877D01*
Y21240D01*
X63984D01*
Y21133D01*
X63877D01*
Y21240D01*
X63769D01*
Y21133D01*
X63877D01*
Y21025D01*
X63769D01*
Y21133D01*
X63662D01*
Y21240D01*
X63554D01*
Y21133D01*
X63447D01*
Y21240D01*
X63340D01*
Y21133D01*
X63232D01*
Y21240D01*
X62265D01*
Y21348D01*
X62158D01*
Y21240D01*
X62050D01*
Y21348D01*
X61943D01*
Y21240D01*
X61835D01*
Y21348D01*
X61728D01*
Y21240D01*
X61620D01*
Y21348D01*
X61513D01*
Y21240D01*
X61406D01*
Y21348D01*
X61298D01*
Y21240D01*
X61191D01*
Y21348D01*
X61083D01*
Y21455D01*
X60976D01*
Y21348D01*
X61083D01*
Y21240D01*
X60976D01*
Y21348D01*
X60868D01*
Y21455D01*
X60761D01*
Y21348D01*
X60868D01*
Y21240D01*
X60761D01*
Y21348D01*
X60654D01*
Y21455D01*
X60546D01*
Y21348D01*
X60654D01*
Y21240D01*
X60546D01*
Y21348D01*
X60439D01*
Y21455D01*
X60331D01*
Y21348D01*
X60224D01*
Y21455D01*
X60116D01*
Y21348D01*
X60009D01*
Y21455D01*
X59901D01*
Y21348D01*
X59794D01*
Y21455D01*
X59687D01*
Y21348D01*
X59579D01*
Y21455D01*
X59257D01*
Y21348D01*
X59149D01*
Y21455D01*
X58612D01*
Y21563D01*
X58934D01*
Y21670D01*
X59042D01*
Y21563D01*
X59364D01*
Y21670D01*
X59472D01*
Y21563D01*
X59579D01*
Y21670D01*
X59687D01*
Y21563D01*
X59794D01*
Y21670D01*
X59687D01*
Y21778D01*
X59794D01*
Y21670D01*
X59901D01*
Y21563D01*
X60009D01*
Y21670D01*
X60116D01*
Y21563D01*
X60224D01*
Y21670D01*
X60116D01*
Y21778D01*
X60224D01*
Y21670D01*
X60331D01*
Y21563D01*
X60439D01*
Y21670D01*
X60546D01*
Y21778D01*
X60654D01*
Y21670D01*
X60761D01*
Y21563D01*
X60868D01*
Y21670D01*
X60761D01*
Y21778D01*
X60868D01*
Y21670D01*
X60976D01*
Y21778D01*
X61083D01*
Y21670D01*
X61191D01*
Y21778D01*
X61298D01*
Y21670D01*
X61406D01*
Y21778D01*
X61513D01*
Y21670D01*
X61620D01*
Y21778D01*
X61728D01*
Y21670D01*
X61835D01*
Y21778D01*
X61943D01*
Y21670D01*
X62050D01*
Y21563D01*
X62158D01*
Y21455D01*
X62265D01*
Y21563D01*
X62158D01*
Y21670D01*
X62050D01*
Y21778D01*
X62158D01*
Y21670D01*
X62265D01*
Y21563D01*
X62372D01*
Y21455D01*
X62480D01*
Y21348D01*
X62587D01*
Y21455D01*
X62480D01*
Y21563D01*
X62372D01*
Y21670D01*
X62265D01*
Y21778D01*
X62372D01*
Y21885D01*
X61835D01*
Y21993D01*
X61728D01*
Y22100D01*
X61620D01*
Y21993D01*
X61728D01*
Y21885D01*
X61620D01*
Y21993D01*
X61298D01*
Y22100D01*
X60546D01*
Y22207D01*
X60439D01*
Y22100D01*
X60331D01*
Y22207D01*
X60009D01*
Y22315D01*
X59901D01*
Y22207D01*
X59794D01*
Y22315D01*
X59687D01*
Y22207D01*
X59579D01*
Y22315D01*
X58827D01*
Y22422D01*
X58720D01*
Y22315D01*
X58612D01*
Y22422D01*
X58505D01*
Y22315D01*
X58397D01*
Y22422D01*
X58290D01*
Y22315D01*
X58182D01*
Y22422D01*
X58075D01*
Y22530D01*
X57968D01*
Y22422D01*
X57860D01*
Y22530D01*
X57753D01*
Y22422D01*
X57860D01*
Y22315D01*
X57753D01*
Y22422D01*
X57645D01*
Y22530D01*
X57538D01*
Y22422D01*
X57430D01*
Y22530D01*
X57323D01*
Y22422D01*
X57215D01*
Y22530D01*
X56248D01*
Y22637D01*
X58720D01*
Y22530D01*
X58827D01*
Y22637D01*
X58934D01*
Y22530D01*
X59042D01*
Y22422D01*
X59149D01*
Y22530D01*
X59042D01*
Y22637D01*
X59149D01*
Y22530D01*
X59257D01*
Y22637D01*
X59364D01*
Y22530D01*
X59472D01*
Y22422D01*
X59579D01*
Y22530D01*
X59472D01*
Y22637D01*
X59579D01*
Y22530D01*
X59687D01*
Y22422D01*
X59794D01*
Y22530D01*
X59687D01*
Y22637D01*
X59794D01*
Y22530D01*
X59901D01*
Y22422D01*
X60009D01*
Y22530D01*
X60116D01*
Y22422D01*
X60224D01*
Y22530D01*
X60331D01*
Y22422D01*
X61083D01*
Y22315D01*
X61191D01*
Y22422D01*
X61298D01*
Y22315D01*
X61406D01*
Y22422D01*
X61513D01*
Y22315D01*
X61620D01*
Y22422D01*
X61728D01*
Y22315D01*
X61835D01*
Y22207D01*
X61943D01*
Y22315D01*
X62050D01*
Y22207D01*
X62587D01*
Y22100D01*
X62695D01*
Y22207D01*
X62802D01*
Y22100D01*
X63125D01*
Y21993D01*
X63232D01*
Y22100D01*
X63340D01*
Y21993D01*
X63877D01*
Y21885D01*
X64199D01*
Y21778D01*
X64306D01*
Y21885D01*
X64199D01*
Y21993D01*
X64306D01*
Y21885D01*
X64414D01*
Y21778D01*
X64521D01*
Y21885D01*
X64629D01*
Y21778D01*
X64736D01*
Y21885D01*
X64629D01*
Y21993D01*
X64736D01*
Y21885D01*
X64844D01*
Y21778D01*
X64951D01*
Y21670D01*
X65058D01*
Y21563D01*
X65166D01*
Y21670D01*
X65058D01*
Y21778D01*
X64951D01*
Y21885D01*
X65058D01*
Y21778D01*
X65166D01*
Y21670D01*
X65273D01*
Y21563D01*
X65811D01*
Y21455D01*
X65918D01*
Y21348D01*
X66025D01*
Y21455D01*
X65918D01*
Y21563D01*
X66025D01*
Y21455D01*
X66133D01*
Y21348D01*
X66455D01*
Y21240D01*
X66563D01*
Y21348D01*
X66670D01*
Y21240D01*
X66777D01*
Y21133D01*
X67315D01*
Y21025D01*
X67422D01*
Y20918D01*
X67530D01*
Y21025D01*
X67637D01*
Y20918D01*
X67959D01*
Y20811D01*
X68067D01*
Y20703D01*
X68174D01*
Y20811D01*
X68282D01*
Y20703D01*
X68604D01*
Y20596D01*
X68711D01*
Y20488D01*
X68819D01*
Y20596D01*
X68926D01*
Y20488D01*
X69249D01*
Y20381D01*
X69356D01*
Y20274D01*
X69893D01*
Y20166D01*
X70001D01*
Y20059D01*
X70323D01*
Y19951D01*
X70430D01*
Y20059D01*
X70753D01*
Y20166D01*
X70645D01*
Y20274D01*
X70753D01*
Y20166D01*
X70860D01*
Y20274D01*
X70968D01*
Y20381D01*
X71075D01*
Y20274D01*
X71183D01*
Y20381D01*
X71075D01*
Y20488D01*
X71183D01*
Y20596D01*
X71290D01*
Y20488D01*
X71397D01*
Y20596D01*
X71290D01*
Y20703D01*
X71612D01*
Y20811D01*
X71720D01*
Y20918D01*
X71612D01*
Y21025D01*
X71505D01*
Y21133D01*
X71612D01*
Y21025D01*
X71720D01*
Y21133D01*
X71827D01*
Y21240D01*
X71720D01*
Y21348D01*
X71612D01*
Y21455D01*
X71505D01*
Y21563D01*
X71397D01*
Y21455D01*
X71290D01*
Y21563D01*
X71183D01*
Y21670D01*
X71075D01*
Y21563D01*
X71183D01*
Y21455D01*
X71075D01*
Y21563D01*
X70968D01*
Y21670D01*
X70860D01*
Y21778D01*
X70968D01*
Y21885D01*
X71075D01*
Y21993D01*
X71183D01*
Y22100D01*
X71290D01*
Y22207D01*
X71397D01*
Y22315D01*
X71505D01*
Y22422D01*
X71612D01*
Y22530D01*
X71720D01*
Y22637D01*
X71827D01*
Y22745D01*
X71934D01*
Y22637D01*
X72042D01*
Y22745D01*
X71934D01*
Y22852D01*
X72042D01*
Y22745D01*
X72149D01*
Y22852D01*
X72472D01*
Y22959D01*
X72579D01*
Y22852D01*
X72687D01*
Y22959D01*
X72579D01*
Y23067D01*
X72687D01*
Y22959D01*
X72794D01*
Y22852D01*
X72901D01*
Y22959D01*
X72794D01*
Y23067D01*
X72901D01*
Y23174D01*
X73009D01*
Y23282D01*
X73116D01*
Y23389D01*
X73009D01*
Y23497D01*
X73116D01*
Y23604D01*
X73224D01*
Y23711D01*
X73331D01*
Y23819D01*
X73439D01*
Y23926D01*
X73546D01*
Y24034D01*
X73439D01*
Y24141D01*
X73546D01*
Y24249D01*
X73654D01*
Y24356D01*
X73761D01*
Y24464D01*
X73654D01*
Y24571D01*
X73976D01*
Y24678D01*
X73868D01*
Y24786D01*
X73976D01*
Y24893D01*
X74083D01*
Y25001D01*
X74191D01*
Y25108D01*
X74298D01*
Y25216D01*
X74406D01*
Y25323D01*
X74298D01*
Y25431D01*
X74406D01*
Y25538D01*
X74513D01*
Y25431D01*
X74620D01*
Y25538D01*
X74513D01*
Y25645D01*
X74620D01*
Y25753D01*
X74728D01*
Y25860D01*
X74835D01*
Y25968D01*
X74728D01*
Y26075D01*
X74943D01*
Y26183D01*
Y26290D01*
X75050D01*
Y26397D01*
X75158D01*
Y26505D01*
X75265D01*
Y26612D01*
X75158D01*
Y26720D01*
X75480D01*
Y26827D01*
X75373D01*
Y26935D01*
X75480D01*
Y27042D01*
X75587D01*
Y27150D01*
X75695D01*
Y27257D01*
X75802D01*
Y27364D01*
X75910D01*
Y27472D01*
X75802D01*
Y27579D01*
X76017D01*
Y27687D01*
Y27794D01*
X76125D01*
Y27902D01*
X76232D01*
Y28009D01*
X76340D01*
Y28117D01*
X76447D01*
Y28224D01*
X76554D01*
Y28331D01*
X76447D01*
Y28439D01*
X76554D01*
Y28546D01*
X76662D01*
Y28439D01*
X76769D01*
Y28546D01*
X76662D01*
Y28654D01*
X76769D01*
Y28761D01*
X76877D01*
Y28868D01*
X76984D01*
Y28976D01*
X76877D01*
Y29083D01*
X76984D01*
Y28976D01*
X77092D01*
Y29083D01*
X77199D01*
Y29191D01*
X77092D01*
Y29298D01*
X77306D01*
Y29406D01*
Y29513D01*
X77414D01*
Y29621D01*
X77521D01*
Y29728D01*
X77629D01*
Y29836D01*
X77736D01*
Y29943D01*
X77844D01*
Y30050D01*
X77736D01*
Y30158D01*
X78059D01*
Y30265D01*
X77951D01*
Y30373D01*
X78059D01*
Y30480D01*
X78166D01*
Y30588D01*
X78273D01*
Y30695D01*
X78381D01*
Y30802D01*
X78488D01*
Y30910D01*
X78381D01*
Y31017D01*
X78703D01*
Y31125D01*
X78596D01*
Y31232D01*
X78811D01*
Y31340D01*
Y31447D01*
X78918D01*
Y31554D01*
X79026D01*
Y31662D01*
X79133D01*
Y31769D01*
X79240D01*
Y31877D01*
X79348D01*
Y31984D01*
X79455D01*
Y32092D01*
X79563D01*
Y32199D01*
X79670D01*
Y32307D01*
X79778D01*
Y32414D01*
Y32521D01*
X79993D01*
Y32629D01*
X79885D01*
Y32736D01*
X79993D01*
Y32844D01*
X80100D01*
Y32736D01*
D02*
G37*
G36*
X112224Y26397D02*
X112331D01*
Y26290D01*
X112654D01*
Y26183D01*
X112761D01*
Y26075D01*
X113084D01*
Y25968D01*
X113191D01*
Y25860D01*
X113298D01*
Y25753D01*
X113406D01*
Y25645D01*
X113513D01*
Y25538D01*
X113621D01*
Y25431D01*
X113728D01*
Y25323D01*
X113836D01*
Y25216D01*
X113943D01*
Y25108D01*
X113836D01*
Y25001D01*
X113943D01*
Y24893D01*
Y24786D01*
X114050D01*
Y24678D01*
Y24571D01*
X114158D01*
Y24464D01*
X114050D01*
Y24356D01*
X114158D01*
Y24249D01*
X114050D01*
Y24141D01*
X113943D01*
Y24249D01*
X113836D01*
Y24141D01*
X113728D01*
Y24034D01*
X113621D01*
Y24141D01*
X113513D01*
Y24034D01*
X113191D01*
Y23926D01*
X112869D01*
Y23819D01*
X112331D01*
Y23711D01*
X112009D01*
Y23604D01*
X111687D01*
Y23711D01*
Y23819D01*
Y23926D01*
X111579D01*
Y24034D01*
X111472D01*
Y24141D01*
X111579D01*
Y24249D01*
X111257D01*
Y24356D01*
X111150D01*
Y24464D01*
X111042D01*
Y24571D01*
X110935D01*
Y24464D01*
X110827D01*
Y24571D01*
X110720D01*
Y24678D01*
X110612D01*
Y24571D01*
X110720D01*
Y24464D01*
X110612D01*
Y24571D01*
X110505D01*
Y24464D01*
X110398D01*
Y24571D01*
X110290D01*
Y24464D01*
X109968D01*
Y24356D01*
X110075D01*
Y24249D01*
X109968D01*
Y24356D01*
X109860D01*
Y24249D01*
X109753D01*
Y24141D01*
X109646D01*
Y24034D01*
X109538D01*
Y23926D01*
X109431D01*
Y23819D01*
X109323D01*
Y23711D01*
X109216D01*
Y23604D01*
X109108D01*
Y23497D01*
X109216D01*
Y23389D01*
X109001D01*
Y23282D01*
Y23174D01*
X108894D01*
Y23067D01*
Y22959D01*
Y22852D01*
X108786D01*
Y22745D01*
X108679D01*
Y22637D01*
X108786D01*
Y22530D01*
X108679D01*
Y22422D01*
X108571D01*
Y22315D01*
X108679D01*
Y22207D01*
X108571D01*
Y22100D01*
X108464D01*
Y21993D01*
X108571D01*
Y21885D01*
X108464D01*
Y21778D01*
Y21670D01*
Y21563D01*
X108356D01*
Y21455D01*
X108249D01*
Y21348D01*
X108356D01*
Y21240D01*
X108249D01*
Y21133D01*
X108356D01*
Y21025D01*
X108249D01*
Y20918D01*
X108356D01*
Y20811D01*
X108249D01*
Y20703D01*
X108356D01*
Y20596D01*
X108249D01*
Y20488D01*
X108356D01*
Y20381D01*
X108249D01*
Y20274D01*
X108356D01*
Y20166D01*
X108249D01*
Y20059D01*
X108356D01*
Y19951D01*
X108464D01*
Y19844D01*
X108571D01*
Y19736D01*
X108464D01*
Y19844D01*
X108356D01*
Y19736D01*
X108464D01*
Y19629D01*
X108571D01*
Y19521D01*
X108679D01*
Y19414D01*
X108786D01*
Y19307D01*
X108894D01*
Y19199D01*
X109001D01*
Y19307D01*
X108894D01*
Y19414D01*
X109001D01*
Y19307D01*
X109108D01*
Y19199D01*
X109860D01*
Y19307D01*
X109753D01*
Y19414D01*
X109860D01*
Y19307D01*
X109968D01*
Y19414D01*
X110290D01*
Y19521D01*
X110398D01*
Y19629D01*
X110505D01*
Y19736D01*
X110612D01*
Y19844D01*
X110935D01*
Y19736D01*
X111042D01*
Y19629D01*
X111150D01*
Y19736D01*
X111042D01*
Y19844D01*
X111150D01*
Y19736D01*
X111257D01*
Y19629D01*
X111365D01*
Y19521D01*
X111472D01*
Y19414D01*
X111579D01*
Y19521D01*
X111687D01*
Y19414D01*
X112009D01*
Y19307D01*
X112117D01*
Y19199D01*
X112439D01*
Y19092D01*
X112546D01*
Y18984D01*
Y18877D01*
X112439D01*
Y18769D01*
X112331D01*
Y18662D01*
X112224D01*
Y18554D01*
Y18447D01*
X111902D01*
Y18339D01*
Y18232D01*
X111687D01*
Y18125D01*
X111579D01*
Y18017D01*
X111472D01*
Y17910D01*
X111365D01*
Y18017D01*
X111257D01*
Y17910D01*
X111365D01*
Y17802D01*
X111257D01*
Y17910D01*
X111150D01*
Y17802D01*
X111042D01*
Y17695D01*
X110935D01*
Y17587D01*
X110612D01*
Y17480D01*
X110505D01*
Y17587D01*
X110398D01*
Y17480D01*
X110505D01*
Y17373D01*
X110398D01*
Y17480D01*
X110290D01*
Y17373D01*
X109753D01*
Y17265D01*
X109646D01*
Y17373D01*
X109538D01*
Y17265D01*
X109431D01*
Y17373D01*
X109323D01*
Y17265D01*
X109431D01*
Y17158D01*
X109323D01*
Y17265D01*
X109216D01*
Y17158D01*
X109108D01*
Y17265D01*
X109001D01*
Y17158D01*
X108894D01*
Y17265D01*
X108786D01*
Y17158D01*
X108679D01*
Y17265D01*
X108571D01*
Y17158D01*
X108464D01*
Y17265D01*
X108141D01*
Y17373D01*
X108034D01*
Y17265D01*
X108141D01*
Y17158D01*
X108034D01*
Y17265D01*
X107926D01*
Y17373D01*
X107604D01*
Y17480D01*
X107497D01*
Y17587D01*
X107389D01*
Y17480D01*
X107497D01*
Y17373D01*
X107389D01*
Y17480D01*
X107282D01*
Y17587D01*
X107175D01*
Y17695D01*
X107067D01*
Y17802D01*
X106745D01*
Y17910D01*
X106637D01*
Y18017D01*
X106530D01*
Y18125D01*
X106422D01*
Y18232D01*
X106315D01*
Y18339D01*
Y18447D01*
Y18554D01*
X106208D01*
Y18662D01*
X106100D01*
Y18769D01*
X105993D01*
Y18877D01*
X105885D01*
Y18984D01*
X105993D01*
Y19092D01*
X105885D01*
Y19199D01*
X105993D01*
Y19307D01*
X105885D01*
Y19414D01*
Y19521D01*
Y19629D01*
X105778D01*
Y19736D01*
X105885D01*
Y19844D01*
X105778D01*
Y19951D01*
Y20059D01*
Y20166D01*
Y20274D01*
Y20381D01*
Y20488D01*
Y20596D01*
X105885D01*
Y20703D01*
X105778D01*
Y20811D01*
X105885D01*
Y20918D01*
Y21025D01*
Y21133D01*
Y21240D01*
Y21348D01*
X105993D01*
Y21455D01*
X105885D01*
Y21563D01*
X105993D01*
Y21670D01*
Y21778D01*
Y21885D01*
X105885D01*
Y21993D01*
X105993D01*
Y21885D01*
X106100D01*
Y21993D01*
Y22100D01*
Y22207D01*
X106208D01*
Y22315D01*
X106100D01*
Y22422D01*
X106208D01*
Y22530D01*
X106100D01*
Y22637D01*
X106208D01*
Y22745D01*
X106315D01*
Y22852D01*
X106422D01*
Y22959D01*
X106315D01*
Y23067D01*
X106422D01*
Y23174D01*
X106530D01*
Y23282D01*
X106637D01*
Y23389D01*
X106530D01*
Y23497D01*
X106637D01*
Y23604D01*
X106745D01*
Y23711D01*
X106852D01*
Y23819D01*
X106745D01*
Y23926D01*
X106852D01*
Y24034D01*
X106960D01*
Y24141D01*
X107067D01*
Y24249D01*
X106960D01*
Y24356D01*
X107175D01*
Y24464D01*
Y24571D01*
X107282D01*
Y24678D01*
X107389D01*
Y24786D01*
X107497D01*
Y24893D01*
X107604D01*
Y25001D01*
X107712D01*
Y25108D01*
X107819D01*
Y25216D01*
X107926D01*
Y25323D01*
X108034D01*
Y25431D01*
X108249D01*
Y25538D01*
Y25645D01*
X108571D01*
Y25753D01*
X108679D01*
Y25860D01*
X108786D01*
Y25968D01*
X108894D01*
Y25860D01*
X109001D01*
Y25968D01*
X109108D01*
Y26075D01*
X109216D01*
Y26183D01*
X109323D01*
Y26075D01*
X109431D01*
Y26183D01*
X109323D01*
Y26290D01*
X109431D01*
Y26183D01*
X109538D01*
Y26290D01*
X110075D01*
Y26397D01*
X110183D01*
Y26290D01*
X110290D01*
Y26397D01*
X110183D01*
Y26505D01*
X110290D01*
Y26397D01*
X110398D01*
Y26505D01*
X110505D01*
Y26397D01*
X110612D01*
Y26505D01*
X110720D01*
Y26397D01*
X110827D01*
Y26505D01*
X111150D01*
Y26397D01*
X111257D01*
Y26505D01*
X111579D01*
Y26397D01*
X111687D01*
Y26505D01*
X111794D01*
Y26397D01*
X111902D01*
Y26290D01*
X112009D01*
Y26397D01*
X111902D01*
Y26505D01*
X112009D01*
Y26397D01*
X112117D01*
Y26290D01*
X112224D01*
Y26397D01*
X112117D01*
Y26505D01*
X112224D01*
Y26397D01*
D02*
G37*
G36*
X99331D02*
X99439D01*
Y26290D01*
X99761D01*
Y26183D01*
X99869D01*
Y26290D01*
X99976D01*
Y26183D01*
X100083D01*
Y26075D01*
X100406D01*
Y25968D01*
X100513D01*
Y25860D01*
X100621D01*
Y25753D01*
X100728D01*
Y25645D01*
X100836D01*
Y25538D01*
X100943D01*
Y25431D01*
X101050D01*
Y25323D01*
X101158D01*
Y25216D01*
X101265D01*
Y25108D01*
X101373D01*
Y25001D01*
X101480D01*
Y24893D01*
X101373D01*
Y24786D01*
X101480D01*
Y24678D01*
X101588D01*
Y24571D01*
X101695D01*
Y24464D01*
X101588D01*
Y24356D01*
X101695D01*
Y24249D01*
X101588D01*
Y24141D01*
X101695D01*
Y24034D01*
Y23926D01*
Y23819D01*
Y23711D01*
Y23604D01*
X101803D01*
Y23497D01*
X101695D01*
Y23389D01*
Y23282D01*
Y23174D01*
X101803D01*
Y23067D01*
X101695D01*
Y22959D01*
X101588D01*
Y22852D01*
X101695D01*
Y22745D01*
Y22637D01*
Y22530D01*
X101588D01*
Y22422D01*
X101695D01*
Y22315D01*
X101588D01*
Y22207D01*
X101695D01*
Y22100D01*
X101588D01*
Y21993D01*
X101695D01*
Y21885D01*
X101588D01*
Y21993D01*
X101480D01*
Y21885D01*
X101588D01*
Y21778D01*
X101480D01*
Y21670D01*
X101373D01*
Y21563D01*
X101480D01*
Y21455D01*
X101373D01*
Y21348D01*
X101480D01*
Y21240D01*
X101373D01*
Y21133D01*
X101265D01*
Y21240D01*
X101158D01*
Y21133D01*
X101265D01*
Y21025D01*
Y20918D01*
Y20811D01*
X101158D01*
Y20703D01*
X101265D01*
Y20596D01*
X101158D01*
Y20488D01*
X101050D01*
Y20381D01*
X100943D01*
Y20274D01*
Y20166D01*
Y20059D01*
X100836D01*
Y19951D01*
X100728D01*
Y19844D01*
X100836D01*
Y19736D01*
X100728D01*
Y19844D01*
X100621D01*
Y19736D01*
X100513D01*
Y19629D01*
X100621D01*
Y19521D01*
X100513D01*
Y19414D01*
X100406D01*
Y19307D01*
X100298D01*
Y19199D01*
X100191D01*
Y19092D01*
X100083D01*
Y18984D01*
X99976D01*
Y18877D01*
X99869D01*
Y18769D01*
X99761D01*
Y18662D01*
X99654D01*
Y18554D01*
X99546D01*
Y18447D01*
X99439D01*
Y18339D01*
X99331D01*
Y18232D01*
X99224D01*
Y18125D01*
X99117D01*
Y18232D01*
X99009D01*
Y18125D01*
X99117D01*
Y18017D01*
X98794D01*
Y17910D01*
X98687D01*
Y17802D01*
X98365D01*
Y17695D01*
X98257D01*
Y17802D01*
X98150D01*
Y17695D01*
X98257D01*
Y17587D01*
X97935D01*
Y17480D01*
X97827D01*
Y17587D01*
X97720D01*
Y17480D01*
X97612D01*
Y17373D01*
X97505D01*
Y17480D01*
X97398D01*
Y17373D01*
X97075D01*
Y17265D01*
X96968D01*
Y17373D01*
X96860D01*
Y17265D01*
X96968D01*
Y17158D01*
X96860D01*
Y17265D01*
X96538D01*
Y17158D01*
X96431D01*
Y17265D01*
X96323D01*
Y17158D01*
X96216D01*
Y17265D01*
X96108D01*
Y17158D01*
X96001D01*
Y17265D01*
X95893D01*
Y17158D01*
X95786D01*
Y17265D01*
X95679D01*
Y17158D01*
X95571D01*
Y17265D01*
X95249D01*
Y17373D01*
X95141D01*
Y17265D01*
X95249D01*
Y17158D01*
X95141D01*
Y17265D01*
X95034D01*
Y17373D01*
X94497D01*
Y17480D01*
X94389D01*
Y17587D01*
X94067D01*
Y17695D01*
X93959D01*
Y17802D01*
X93637D01*
Y17910D01*
X93530D01*
Y18017D01*
X93422D01*
Y18125D01*
X93315D01*
Y18232D01*
X93207D01*
Y18339D01*
X93100D01*
Y18447D01*
X92993D01*
Y18554D01*
X93100D01*
Y18662D01*
X92993D01*
Y18769D01*
X92885D01*
Y18877D01*
X92778D01*
Y18984D01*
X92885D01*
Y19092D01*
X92778D01*
Y19199D01*
X92670D01*
Y19307D01*
X92563D01*
Y19414D01*
X92670D01*
Y19521D01*
X92563D01*
Y19629D01*
X92670D01*
Y19736D01*
X92563D01*
Y19844D01*
X92670D01*
Y19951D01*
X92563D01*
Y20059D01*
X92670D01*
Y20166D01*
X92563D01*
Y20274D01*
X92670D01*
Y20381D01*
X92563D01*
Y20488D01*
X92670D01*
Y20596D01*
X92563D01*
Y20703D01*
X92670D01*
Y20811D01*
X92563D01*
Y20918D01*
X92670D01*
Y21025D01*
X92563D01*
Y21133D01*
X92670D01*
Y21240D01*
Y21348D01*
Y21455D01*
X92563D01*
Y21563D01*
X92670D01*
Y21670D01*
X92778D01*
Y21778D01*
X92885D01*
Y21885D01*
X92778D01*
Y21993D01*
X92885D01*
Y22100D01*
X92778D01*
Y22207D01*
X92885D01*
Y22315D01*
X92993D01*
Y22422D01*
X92885D01*
Y22530D01*
X92993D01*
Y22422D01*
X93100D01*
Y22530D01*
X92993D01*
Y22637D01*
X93100D01*
Y22745D01*
X92993D01*
Y22852D01*
X93100D01*
Y22959D01*
X93207D01*
Y23067D01*
X93315D01*
Y23174D01*
X93207D01*
Y23282D01*
X93315D01*
Y23389D01*
X93422D01*
Y23497D01*
Y23604D01*
Y23711D01*
X93530D01*
Y23819D01*
X93637D01*
Y23926D01*
X93745D01*
Y24034D01*
Y24141D01*
Y24249D01*
X93852D01*
Y24141D01*
X93959D01*
Y24249D01*
X93852D01*
Y24356D01*
X93959D01*
Y24464D01*
X94067D01*
Y24571D01*
X94174D01*
Y24678D01*
X94282D01*
Y24786D01*
X94389D01*
Y24893D01*
X94282D01*
Y25001D01*
X94389D01*
Y24893D01*
X94497D01*
Y25001D01*
X94604D01*
Y25108D01*
X94712D01*
Y25216D01*
X94819D01*
Y25323D01*
X94926D01*
Y25431D01*
X95034D01*
Y25538D01*
X95141D01*
Y25431D01*
X95249D01*
Y25538D01*
Y25645D01*
X95464D01*
Y25753D01*
X95571D01*
Y25860D01*
X95893D01*
Y25968D01*
X96001D01*
Y26075D01*
X96323D01*
Y26183D01*
X96431D01*
Y26290D01*
X96538D01*
Y26183D01*
X96645D01*
Y26290D01*
X96968D01*
Y26397D01*
X97075D01*
Y26290D01*
X97183D01*
Y26397D01*
X97290D01*
Y26290D01*
X97398D01*
Y26397D01*
X97290D01*
Y26505D01*
X97398D01*
Y26397D01*
X97505D01*
Y26505D01*
X97612D01*
Y26397D01*
X97720D01*
Y26290D01*
X97827D01*
Y26397D01*
X97720D01*
Y26505D01*
X97827D01*
Y26397D01*
X97935D01*
Y26505D01*
X98042D01*
Y26397D01*
X98150D01*
Y26505D01*
X98257D01*
Y26397D01*
X98365D01*
Y26505D01*
X98687D01*
Y26397D01*
X98794D01*
Y26505D01*
X98902D01*
Y26397D01*
X99009D01*
Y26290D01*
X99117D01*
Y26397D01*
X99009D01*
Y26505D01*
X99117D01*
Y26397D01*
X99224D01*
Y26290D01*
X99331D01*
Y26397D01*
X99224D01*
Y26505D01*
X99331D01*
Y26397D01*
D02*
G37*
G36*
X149828Y26183D02*
X149720D01*
Y26075D01*
X149828D01*
Y25968D01*
X149720D01*
Y25860D01*
X149828D01*
Y25753D01*
X149720D01*
Y25860D01*
X149613D01*
Y25753D01*
X149505D01*
Y25645D01*
X149613D01*
Y25538D01*
X149505D01*
Y25431D01*
X149613D01*
Y25323D01*
X149505D01*
Y25216D01*
X149613D01*
Y25108D01*
X149505D01*
Y25001D01*
Y24893D01*
Y24786D01*
X149398D01*
Y24678D01*
X149290D01*
Y24571D01*
X149398D01*
Y24464D01*
X149290D01*
Y24356D01*
X149183D01*
Y24249D01*
X149076D01*
Y24356D01*
X148968D01*
Y24249D01*
X148861D01*
Y24356D01*
X148753D01*
Y24249D01*
X148646D01*
Y24356D01*
X148538D01*
Y24249D01*
X148431D01*
Y24356D01*
X148324D01*
Y24249D01*
X148216D01*
Y24356D01*
X148109D01*
Y24249D01*
X148001D01*
Y24356D01*
X147894D01*
Y24249D01*
X147786D01*
Y24356D01*
X147679D01*
Y24249D01*
X147571D01*
Y24356D01*
X147464D01*
Y24249D01*
X147356D01*
Y24356D01*
X147249D01*
Y24249D01*
X147142D01*
Y24356D01*
X147034D01*
Y24249D01*
X146927D01*
Y24356D01*
X146819D01*
Y24249D01*
X146712D01*
Y24141D01*
X146819D01*
Y24034D01*
X146712D01*
Y23926D01*
X146605D01*
Y23819D01*
Y23711D01*
Y23604D01*
X146497D01*
Y23497D01*
X146605D01*
Y23389D01*
X146497D01*
Y23282D01*
X146605D01*
Y23174D01*
X146497D01*
Y23067D01*
X146390D01*
Y22959D01*
X146282D01*
Y22852D01*
X146390D01*
Y22745D01*
X146282D01*
Y22637D01*
X146390D01*
Y22530D01*
X146282D01*
Y22422D01*
X146390D01*
Y22315D01*
X146282D01*
Y22207D01*
X146175D01*
Y22100D01*
X146282D01*
Y21993D01*
X146175D01*
Y21885D01*
X146067D01*
Y21778D01*
X146175D01*
Y21670D01*
X146067D01*
Y21563D01*
X146175D01*
Y21455D01*
X146067D01*
Y21348D01*
X145960D01*
Y21240D01*
X145852D01*
Y21133D01*
X145960D01*
Y21025D01*
X145852D01*
Y20918D01*
X145960D01*
Y20811D01*
X145852D01*
Y20703D01*
X145960D01*
Y20596D01*
X145852D01*
Y20488D01*
Y20381D01*
Y20274D01*
X145745D01*
Y20166D01*
X145638D01*
Y20059D01*
X145745D01*
Y19951D01*
X145638D01*
Y19844D01*
X145745D01*
Y19736D01*
X145638D01*
Y19629D01*
X145530D01*
Y19521D01*
X145638D01*
Y19414D01*
X145530D01*
Y19307D01*
Y19199D01*
Y19092D01*
X145423D01*
Y18984D01*
X145530D01*
Y18877D01*
X145423D01*
Y18769D01*
Y18662D01*
Y18554D01*
X145315D01*
Y18447D01*
Y18339D01*
Y18232D01*
X145208D01*
Y18125D01*
X145315D01*
Y18017D01*
X145208D01*
Y17910D01*
X145100D01*
Y17802D01*
Y17695D01*
Y17587D01*
Y17480D01*
Y17373D01*
X144993D01*
Y17480D01*
X144886D01*
Y17373D01*
X144778D01*
Y17480D01*
X144671D01*
Y17373D01*
X144563D01*
Y17480D01*
X144456D01*
Y17373D01*
X144348D01*
Y17480D01*
X144241D01*
Y17373D01*
X144133D01*
Y17480D01*
X144026D01*
Y17373D01*
X143919D01*
Y17480D01*
X143811D01*
Y17373D01*
X143704D01*
Y17480D01*
X143596D01*
Y17373D01*
X143489D01*
Y17480D01*
X143381D01*
Y17373D01*
X143274D01*
Y17480D01*
X143166D01*
Y17373D01*
X143059D01*
Y17480D01*
X142952D01*
Y17373D01*
X142844D01*
Y17480D01*
X142737D01*
Y17587D01*
X142629D01*
Y17695D01*
X142737D01*
Y17802D01*
X142629D01*
Y17910D01*
X142737D01*
Y18017D01*
X142844D01*
Y18125D01*
X142737D01*
Y18232D01*
X142844D01*
Y18339D01*
Y18447D01*
Y18554D01*
X142952D01*
Y18662D01*
X142844D01*
Y18769D01*
X142952D01*
Y18877D01*
X142844D01*
Y18984D01*
X142952D01*
Y19092D01*
X143059D01*
Y19199D01*
X142952D01*
Y19307D01*
X143059D01*
Y19199D01*
X143166D01*
Y19307D01*
X143059D01*
Y19414D01*
X143166D01*
Y19521D01*
X143059D01*
Y19629D01*
X143166D01*
Y19736D01*
Y19844D01*
Y19951D01*
X143274D01*
Y20059D01*
Y20166D01*
Y20274D01*
X143381D01*
Y20381D01*
X143274D01*
Y20488D01*
X143381D01*
Y20596D01*
X143274D01*
Y20703D01*
X143381D01*
Y20811D01*
X143489D01*
Y20918D01*
Y21025D01*
Y21133D01*
X143596D01*
Y21240D01*
X143489D01*
Y21348D01*
X143596D01*
Y21455D01*
Y21563D01*
Y21670D01*
X143704D01*
Y21778D01*
Y21885D01*
Y21993D01*
X143811D01*
Y22100D01*
X143704D01*
Y22207D01*
X143811D01*
Y22315D01*
X143704D01*
Y22422D01*
X143811D01*
Y22530D01*
X143919D01*
Y22637D01*
Y22745D01*
Y22852D01*
X144026D01*
Y22959D01*
X143919D01*
Y23067D01*
X144026D01*
Y23174D01*
Y23282D01*
Y23389D01*
X144133D01*
Y23497D01*
Y23604D01*
Y23711D01*
X144241D01*
Y23819D01*
X144133D01*
Y23926D01*
X144241D01*
Y24034D01*
X144133D01*
Y24141D01*
X144241D01*
Y24249D01*
X144133D01*
Y24356D01*
X144026D01*
Y24249D01*
X143919D01*
Y24356D01*
X143811D01*
Y24249D01*
X143704D01*
Y24356D01*
X143596D01*
Y24249D01*
X143489D01*
Y24356D01*
X143381D01*
Y24249D01*
X143274D01*
Y24356D01*
X143166D01*
Y24249D01*
X143059D01*
Y24356D01*
X142952D01*
Y24249D01*
X142844D01*
Y24356D01*
X142737D01*
Y24249D01*
X142629D01*
Y24356D01*
X142522D01*
Y24249D01*
X142414D01*
Y24356D01*
X142307D01*
Y24249D01*
X142200D01*
Y24356D01*
X142092D01*
Y24249D01*
X141985D01*
Y24356D01*
X141877D01*
Y24464D01*
X141770D01*
Y24571D01*
X141877D01*
Y24678D01*
X141770D01*
Y24786D01*
X141877D01*
Y24893D01*
X141985D01*
Y25001D01*
X141877D01*
Y25108D01*
X141985D01*
Y25216D01*
Y25323D01*
Y25431D01*
X142092D01*
Y25538D01*
Y25645D01*
Y25753D01*
X141985D01*
Y25860D01*
X142200D01*
Y25968D01*
Y26075D01*
X142307D01*
Y26183D01*
X142200D01*
Y26290D01*
X142307D01*
Y26183D01*
X142414D01*
Y26290D01*
X143166D01*
Y26183D01*
X143274D01*
Y26290D01*
X144026D01*
Y26183D01*
X144133D01*
Y26290D01*
X144886D01*
Y26183D01*
X144993D01*
Y26290D01*
X145745D01*
Y26183D01*
X145852D01*
Y26290D01*
X146605D01*
Y26183D01*
X146712D01*
Y26290D01*
X147464D01*
Y26183D01*
X147571D01*
Y26290D01*
X148324D01*
Y26183D01*
X148431D01*
Y26290D01*
X149183D01*
Y26183D01*
X149290D01*
Y26290D01*
X149828D01*
Y26183D01*
D02*
G37*
G36*
X137580D02*
X137687D01*
Y26075D01*
Y25968D01*
Y25860D01*
X137580D01*
Y25753D01*
X137472D01*
Y25645D01*
X137580D01*
Y25538D01*
X137472D01*
Y25431D01*
X137580D01*
Y25323D01*
X137472D01*
Y25216D01*
X137580D01*
Y25108D01*
X137472D01*
Y25001D01*
X137365D01*
Y24893D01*
X137472D01*
Y24786D01*
X137365D01*
Y24678D01*
X137257D01*
Y24571D01*
X137365D01*
Y24464D01*
X137257D01*
Y24356D01*
X137150D01*
Y24249D01*
X137042D01*
Y24356D01*
X136935D01*
Y24249D01*
X136828D01*
Y24356D01*
X136720D01*
Y24249D01*
X136613D01*
Y24356D01*
X136505D01*
Y24249D01*
X136398D01*
Y24356D01*
X136290D01*
Y24249D01*
X136183D01*
Y24356D01*
X136075D01*
Y24249D01*
X135968D01*
Y24356D01*
X135861D01*
Y24249D01*
X135753D01*
Y24356D01*
X135646D01*
Y24249D01*
X135538D01*
Y24356D01*
X135431D01*
Y24249D01*
X135323D01*
Y24356D01*
X135216D01*
Y24249D01*
X135108D01*
Y24356D01*
X135001D01*
Y24249D01*
X134894D01*
Y24356D01*
X134786D01*
Y24249D01*
X134679D01*
Y24356D01*
X134571D01*
Y24249D01*
X134464D01*
Y24141D01*
X134356D01*
Y24034D01*
X134464D01*
Y23926D01*
X134356D01*
Y23819D01*
X134249D01*
Y23711D01*
X134356D01*
Y23604D01*
X134249D01*
Y23497D01*
X134356D01*
Y23389D01*
X134249D01*
Y23282D01*
X134356D01*
Y23174D01*
X134249D01*
Y23282D01*
X134142D01*
Y23174D01*
X134249D01*
Y23067D01*
X134142D01*
Y22959D01*
X134034D01*
Y22852D01*
X134142D01*
Y22745D01*
X134249D01*
Y22852D01*
X134356D01*
Y22745D01*
X134464D01*
Y22637D01*
X134571D01*
Y22745D01*
X134464D01*
Y22852D01*
X134571D01*
Y22745D01*
X134679D01*
Y22852D01*
X134786D01*
Y22745D01*
X134894D01*
Y22637D01*
X135001D01*
Y22745D01*
X134894D01*
Y22852D01*
X135001D01*
Y22745D01*
X135108D01*
Y22852D01*
X135216D01*
Y22745D01*
X135323D01*
Y22637D01*
X135431D01*
Y22745D01*
X135323D01*
Y22852D01*
X135431D01*
Y22745D01*
X135538D01*
Y22852D01*
X135646D01*
Y22745D01*
X135753D01*
Y22637D01*
X135861D01*
Y22745D01*
X135753D01*
Y22852D01*
X135861D01*
Y22745D01*
X135968D01*
Y22852D01*
X136075D01*
Y22745D01*
X136183D01*
Y22637D01*
X136290D01*
Y22745D01*
X136183D01*
Y22852D01*
X136290D01*
Y22745D01*
X136398D01*
Y22852D01*
X136505D01*
Y22745D01*
X136613D01*
Y22637D01*
X136720D01*
Y22530D01*
Y22422D01*
Y22315D01*
X136613D01*
Y22207D01*
X136720D01*
Y22100D01*
X136613D01*
Y21993D01*
Y21885D01*
Y21778D01*
X136505D01*
Y21670D01*
X136398D01*
Y21563D01*
X136505D01*
Y21455D01*
X136398D01*
Y21348D01*
X136505D01*
Y21240D01*
X136398D01*
Y21133D01*
X136505D01*
Y21025D01*
X136183D01*
Y20918D01*
X136290D01*
Y20811D01*
X136183D01*
Y20918D01*
X136075D01*
Y21025D01*
X135968D01*
Y20918D01*
X135861D01*
Y21025D01*
X135753D01*
Y20918D01*
X135861D01*
Y20811D01*
X135753D01*
Y20918D01*
X135646D01*
Y21025D01*
X135538D01*
Y20918D01*
X135431D01*
Y21025D01*
X135323D01*
Y20918D01*
X135216D01*
Y21025D01*
X135108D01*
Y20918D01*
X135001D01*
Y21025D01*
X134894D01*
Y20918D01*
X135001D01*
Y20811D01*
X134894D01*
Y20918D01*
X134786D01*
Y21025D01*
X134679D01*
Y20918D01*
X134571D01*
Y21025D01*
X134464D01*
Y20918D01*
X134571D01*
Y20811D01*
X134464D01*
Y20918D01*
X134356D01*
Y21025D01*
X134249D01*
Y20918D01*
X134142D01*
Y21025D01*
X134034D01*
Y20918D01*
X134142D01*
Y20811D01*
X134034D01*
Y20918D01*
X133927D01*
Y21025D01*
X133819D01*
Y20918D01*
X133712D01*
Y21025D01*
X133604D01*
Y20918D01*
X133712D01*
Y20811D01*
X133604D01*
Y20703D01*
Y20596D01*
Y20488D01*
X133497D01*
Y20381D01*
X133389D01*
Y20274D01*
X133497D01*
Y20166D01*
X133389D01*
Y20059D01*
X133497D01*
Y19951D01*
X133389D01*
Y19844D01*
Y19736D01*
Y19629D01*
X133282D01*
Y19521D01*
Y19414D01*
Y19307D01*
X133389D01*
Y19414D01*
X133712D01*
Y19307D01*
X133819D01*
Y19414D01*
X134142D01*
Y19307D01*
X134249D01*
Y19414D01*
X134571D01*
Y19307D01*
X134679D01*
Y19414D01*
X135001D01*
Y19307D01*
X135108D01*
Y19414D01*
X135431D01*
Y19307D01*
X135538D01*
Y19414D01*
X135861D01*
Y19307D01*
X135968D01*
Y19199D01*
X136075D01*
Y19092D01*
X135968D01*
Y18984D01*
X136075D01*
Y18877D01*
X135968D01*
Y18984D01*
X135861D01*
Y18877D01*
Y18769D01*
Y18662D01*
X135753D01*
Y18554D01*
X135861D01*
Y18447D01*
X135753D01*
Y18339D01*
X135861D01*
Y18232D01*
X135753D01*
Y18125D01*
Y18017D01*
Y17910D01*
X135646D01*
Y17802D01*
X135538D01*
Y17695D01*
X135646D01*
Y17587D01*
X135538D01*
Y17480D01*
X135431D01*
Y17373D01*
X135323D01*
Y17480D01*
X135216D01*
Y17373D01*
X135108D01*
Y17480D01*
X135001D01*
Y17373D01*
X134894D01*
Y17480D01*
X134786D01*
Y17373D01*
X134679D01*
Y17480D01*
X134571D01*
Y17373D01*
X134464D01*
Y17480D01*
X134356D01*
Y17373D01*
X134249D01*
Y17480D01*
X134142D01*
Y17373D01*
X134034D01*
Y17480D01*
X133927D01*
Y17373D01*
X133819D01*
Y17480D01*
X133712D01*
Y17373D01*
X133604D01*
Y17480D01*
X133497D01*
Y17373D01*
X133389D01*
Y17480D01*
X133282D01*
Y17373D01*
X133175D01*
Y17480D01*
X133067D01*
Y17373D01*
X132960D01*
Y17480D01*
X132852D01*
Y17373D01*
X132745D01*
Y17480D01*
X132638D01*
Y17373D01*
X132530D01*
Y17480D01*
X132423D01*
Y17373D01*
X132315D01*
Y17480D01*
X132208D01*
Y17373D01*
X132100D01*
Y17480D01*
X131993D01*
Y17373D01*
X131885D01*
Y17480D01*
X131778D01*
Y17373D01*
X131670D01*
Y17480D01*
X131563D01*
Y17373D01*
X131456D01*
Y17480D01*
X131348D01*
Y17373D01*
X131241D01*
Y17480D01*
X131133D01*
Y17373D01*
X131026D01*
Y17480D01*
X130918D01*
Y17373D01*
X130811D01*
Y17480D01*
X130703D01*
Y17373D01*
X130596D01*
Y17480D01*
X130489D01*
Y17373D01*
X130381D01*
Y17480D01*
Y17587D01*
Y17695D01*
X130489D01*
Y17802D01*
X130381D01*
Y17910D01*
X130489D01*
Y18017D01*
X130381D01*
Y18125D01*
X130489D01*
Y18232D01*
X130596D01*
Y18339D01*
X130489D01*
Y18447D01*
X130596D01*
Y18554D01*
X130703D01*
Y18662D01*
X130596D01*
Y18769D01*
X130703D01*
Y18877D01*
X130596D01*
Y18984D01*
X130703D01*
Y19092D01*
X130596D01*
Y19199D01*
X130703D01*
Y19307D01*
X130811D01*
Y19414D01*
X130918D01*
Y19521D01*
X130811D01*
Y19629D01*
X130918D01*
Y19736D01*
X130811D01*
Y19844D01*
X130918D01*
Y19951D01*
X131026D01*
Y20059D01*
X130918D01*
Y20166D01*
X131026D01*
Y20274D01*
X131133D01*
Y20381D01*
X131026D01*
Y20488D01*
X131133D01*
Y20596D01*
X131026D01*
Y20703D01*
X131133D01*
Y20811D01*
Y20918D01*
Y21025D01*
X131241D01*
Y21133D01*
X131348D01*
Y21240D01*
X131241D01*
Y21348D01*
X131348D01*
Y21455D01*
X131241D01*
Y21563D01*
X131348D01*
Y21670D01*
Y21778D01*
Y21885D01*
X131456D01*
Y21993D01*
Y22100D01*
Y22207D01*
X131563D01*
Y22315D01*
X131456D01*
Y22422D01*
X131563D01*
Y22530D01*
Y22637D01*
Y22745D01*
X131670D01*
Y22852D01*
Y22959D01*
Y23067D01*
X131778D01*
Y23174D01*
X131670D01*
Y23282D01*
X131778D01*
Y23389D01*
Y23497D01*
Y23604D01*
X131885D01*
Y23711D01*
Y23819D01*
Y23926D01*
X131993D01*
Y24034D01*
X131885D01*
Y24141D01*
X131993D01*
Y24249D01*
X131885D01*
Y24356D01*
X131993D01*
Y24464D01*
X132100D01*
Y24571D01*
X132208D01*
Y24678D01*
X132100D01*
Y24786D01*
X132208D01*
Y24893D01*
X132100D01*
Y25001D01*
X132208D01*
Y25108D01*
Y25216D01*
Y25323D01*
X132100D01*
Y25431D01*
X132208D01*
Y25323D01*
X132315D01*
Y25431D01*
Y25538D01*
Y25645D01*
X132423D01*
Y25753D01*
X132315D01*
Y25860D01*
X132423D01*
Y25968D01*
X132315D01*
Y26075D01*
X132423D01*
Y26183D01*
X132530D01*
Y26290D01*
X132852D01*
Y26183D01*
X132960D01*
Y26290D01*
X133712D01*
Y26183D01*
X133819D01*
Y26290D01*
X134571D01*
Y26183D01*
X134679D01*
Y26290D01*
X135431D01*
Y26183D01*
X135538D01*
Y26290D01*
X136290D01*
Y26183D01*
X136398D01*
Y26290D01*
X137150D01*
Y26183D01*
X137257D01*
Y26290D01*
X137580D01*
Y26183D01*
D02*
G37*
G36*
X128125D02*
X128018D01*
Y26075D01*
X127910D01*
Y25968D01*
X127588D01*
Y25860D01*
X127695D01*
Y25753D01*
X127373D01*
Y25645D01*
X127266D01*
Y25538D01*
X127158D01*
Y25431D01*
X127051D01*
Y25323D01*
X126943D01*
Y25216D01*
X126836D01*
Y25108D01*
X126728D01*
Y25001D01*
X126621D01*
Y25108D01*
X126513D01*
Y25001D01*
X126621D01*
Y24893D01*
X126513D01*
Y24786D01*
X126406D01*
Y24893D01*
X126299D01*
Y24786D01*
X126406D01*
Y24678D01*
X126084D01*
Y24571D01*
X126191D01*
Y24464D01*
X126084D01*
Y24571D01*
X125976D01*
Y24464D01*
X125869D01*
Y24356D01*
X125761D01*
Y24249D01*
X125654D01*
Y24141D01*
X125761D01*
Y24034D01*
X125654D01*
Y24141D01*
X125547D01*
Y24034D01*
X125439D01*
Y23926D01*
X125332D01*
Y23819D01*
X125224D01*
Y23711D01*
X125117D01*
Y23604D01*
X125009D01*
Y23497D01*
X124902D01*
Y23389D01*
X124580D01*
Y23282D01*
Y23174D01*
X124365D01*
Y23067D01*
X124257D01*
Y22959D01*
X124150D01*
Y22852D01*
X124042D01*
Y22745D01*
X123935D01*
Y22637D01*
X123828D01*
Y22530D01*
X123720D01*
Y22422D01*
X123613D01*
Y22530D01*
X123505D01*
Y22422D01*
X123613D01*
Y22315D01*
X123290D01*
Y22207D01*
X123398D01*
Y22100D01*
X123075D01*
Y21993D01*
X123183D01*
Y21885D01*
X123075D01*
Y21993D01*
X122968D01*
Y21885D01*
X122861D01*
Y21778D01*
X122968D01*
Y21670D01*
X123075D01*
Y21563D01*
X123183D01*
Y21455D01*
X123290D01*
Y21348D01*
X123398D01*
Y21240D01*
X123290D01*
Y21133D01*
X123398D01*
Y21025D01*
X123505D01*
Y20918D01*
X123613D01*
Y20811D01*
X123720D01*
Y20703D01*
X123828D01*
Y20596D01*
X123720D01*
Y20488D01*
X123828D01*
Y20381D01*
X123935D01*
Y20274D01*
X124042D01*
Y20166D01*
X124150D01*
Y20059D01*
X124257D01*
Y19951D01*
X124150D01*
Y19844D01*
X124257D01*
Y19736D01*
X124365D01*
Y19629D01*
X124472D01*
Y19521D01*
X124580D01*
Y19414D01*
X124687D01*
Y19307D01*
X124580D01*
Y19199D01*
X124794D01*
Y19092D01*
Y18984D01*
X124902D01*
Y18877D01*
X125009D01*
Y18769D01*
X125117D01*
Y18662D01*
Y18554D01*
X125332D01*
Y18447D01*
X125224D01*
Y18339D01*
X125332D01*
Y18232D01*
X125439D01*
Y18125D01*
X125547D01*
Y18017D01*
X125439D01*
Y17910D01*
X125654D01*
Y17802D01*
Y17695D01*
X125761D01*
Y17587D01*
X125869D01*
Y17480D01*
X125761D01*
Y17373D01*
X125654D01*
Y17480D01*
X125547D01*
Y17373D01*
X125439D01*
Y17480D01*
X125332D01*
Y17373D01*
X125224D01*
Y17480D01*
X125117D01*
Y17373D01*
X125009D01*
Y17480D01*
X124902D01*
Y17373D01*
X124794D01*
Y17480D01*
X124687D01*
Y17373D01*
X124580D01*
Y17480D01*
X124472D01*
Y17373D01*
X124365D01*
Y17480D01*
X124257D01*
Y17373D01*
X124150D01*
Y17480D01*
X124042D01*
Y17373D01*
X123935D01*
Y17480D01*
X123828D01*
Y17373D01*
X123720D01*
Y17480D01*
X123613D01*
Y17373D01*
X123505D01*
Y17480D01*
X123398D01*
Y17373D01*
X123290D01*
Y17480D01*
X123183D01*
Y17373D01*
X123075D01*
Y17480D01*
X122968D01*
Y17587D01*
X122861D01*
Y17695D01*
X122753D01*
Y17802D01*
X122646D01*
Y17910D01*
X122538D01*
Y18017D01*
X122431D01*
Y18125D01*
X122538D01*
Y18232D01*
X122431D01*
Y18339D01*
X122323D01*
Y18447D01*
X122216D01*
Y18554D01*
X122108D01*
Y18662D01*
X122001D01*
Y18769D01*
X122108D01*
Y18877D01*
X122001D01*
Y18984D01*
X121894D01*
Y19092D01*
X121786D01*
Y19199D01*
X121679D01*
Y19307D01*
X121571D01*
Y19414D01*
X121679D01*
Y19521D01*
X121571D01*
Y19629D01*
X121464D01*
Y19736D01*
X121356D01*
Y19844D01*
X121249D01*
Y19951D01*
X121142D01*
Y20059D01*
Y20166D01*
X120927D01*
Y20274D01*
X121034D01*
Y20381D01*
X120927D01*
Y20488D01*
X120819D01*
Y20596D01*
X120712D01*
Y20703D01*
X120819D01*
Y20811D01*
X120712D01*
Y20918D01*
X120604D01*
Y20811D01*
X120497D01*
Y20703D01*
X120604D01*
Y20596D01*
X120497D01*
Y20703D01*
X120389D01*
Y20596D01*
X120282D01*
Y20488D01*
X120389D01*
Y20381D01*
X120282D01*
Y20274D01*
X120389D01*
Y20166D01*
X120282D01*
Y20059D01*
X120389D01*
Y19951D01*
X120282D01*
Y19844D01*
X120175D01*
Y19736D01*
X120282D01*
Y19629D01*
X120175D01*
Y19521D01*
X120067D01*
Y19414D01*
X120175D01*
Y19307D01*
X120067D01*
Y19199D01*
X120175D01*
Y19092D01*
X120067D01*
Y18984D01*
X119960D01*
Y18877D01*
X120067D01*
Y18769D01*
X119960D01*
Y18877D01*
X119852D01*
Y18769D01*
X119960D01*
Y18662D01*
X119852D01*
Y18554D01*
X119960D01*
Y18447D01*
X119852D01*
Y18339D01*
X119960D01*
Y18232D01*
X119852D01*
Y18125D01*
Y18017D01*
Y17910D01*
X119745D01*
Y17802D01*
X119637D01*
Y17695D01*
X119745D01*
Y17587D01*
X119637D01*
Y17480D01*
X119530D01*
Y17373D01*
X119422D01*
Y17480D01*
X119315D01*
Y17373D01*
X119208D01*
Y17480D01*
X119100D01*
Y17373D01*
X118993D01*
Y17480D01*
X118885D01*
Y17373D01*
X118778D01*
Y17480D01*
X118670D01*
Y17373D01*
X118563D01*
Y17480D01*
X118456D01*
Y17373D01*
X118348D01*
Y17480D01*
X118241D01*
Y17373D01*
X118133D01*
Y17480D01*
X118026D01*
Y17373D01*
X117918D01*
Y17480D01*
X117811D01*
Y17373D01*
X117703D01*
Y17480D01*
X117596D01*
Y17373D01*
X117489D01*
Y17480D01*
X117381D01*
Y17373D01*
X117274D01*
Y17480D01*
X117166D01*
Y17587D01*
X117274D01*
Y17695D01*
Y17802D01*
Y17910D01*
X117381D01*
Y18017D01*
X117274D01*
Y18125D01*
X117381D01*
Y18232D01*
X117274D01*
Y18339D01*
X117381D01*
Y18447D01*
X117489D01*
Y18554D01*
X117596D01*
Y18662D01*
X117489D01*
Y18769D01*
X117596D01*
Y18877D01*
X117489D01*
Y18984D01*
X117596D01*
Y19092D01*
Y19199D01*
Y19307D01*
X117703D01*
Y19414D01*
Y19521D01*
Y19629D01*
X117811D01*
Y19736D01*
X117703D01*
Y19844D01*
X117811D01*
Y19951D01*
Y20059D01*
Y20166D01*
X117918D01*
Y20274D01*
Y20381D01*
Y20488D01*
X118026D01*
Y20596D01*
X117918D01*
Y20703D01*
X118026D01*
Y20811D01*
Y20918D01*
Y21025D01*
X118133D01*
Y21133D01*
Y21240D01*
Y21348D01*
X118241D01*
Y21455D01*
X118133D01*
Y21563D01*
X118241D01*
Y21670D01*
X118133D01*
Y21778D01*
X118241D01*
Y21885D01*
X118348D01*
Y21993D01*
X118456D01*
Y22100D01*
X118348D01*
Y22207D01*
X118456D01*
Y22315D01*
X118348D01*
Y22422D01*
X118456D01*
Y22530D01*
X118348D01*
Y22637D01*
X118456D01*
Y22745D01*
X118348D01*
Y22852D01*
X118456D01*
Y22745D01*
X118563D01*
Y22852D01*
Y22959D01*
Y23067D01*
X118670D01*
Y23174D01*
X118563D01*
Y23282D01*
X118670D01*
Y23389D01*
X118563D01*
Y23497D01*
X118670D01*
Y23604D01*
X118778D01*
Y23711D01*
X118670D01*
Y23819D01*
X118778D01*
Y23711D01*
X118885D01*
Y23819D01*
X118778D01*
Y23926D01*
X118885D01*
Y24034D01*
X118778D01*
Y24141D01*
X118885D01*
Y24249D01*
X118778D01*
Y24356D01*
X118885D01*
Y24464D01*
Y24571D01*
X118993D01*
Y24678D01*
Y24786D01*
X119100D01*
Y24893D01*
X118993D01*
Y25001D01*
X119100D01*
Y25108D01*
X118993D01*
Y25216D01*
X119100D01*
Y25323D01*
X119208D01*
Y25431D01*
X119100D01*
Y25538D01*
X119208D01*
Y25431D01*
X119315D01*
Y25538D01*
X119208D01*
Y25645D01*
Y25753D01*
Y25860D01*
X119315D01*
Y25968D01*
X119208D01*
Y26075D01*
X119315D01*
Y26183D01*
X119422D01*
Y26290D01*
X119960D01*
Y26183D01*
X120067D01*
Y26290D01*
X120819D01*
Y26183D01*
X120927D01*
Y26290D01*
X121679D01*
Y26183D01*
X121786D01*
Y26075D01*
Y25968D01*
Y25860D01*
X121679D01*
Y25753D01*
X121571D01*
Y25645D01*
X121679D01*
Y25538D01*
X121571D01*
Y25431D01*
X121679D01*
Y25323D01*
X121571D01*
Y25216D01*
Y25108D01*
Y25001D01*
X121464D01*
Y24893D01*
Y24786D01*
Y24678D01*
X121356D01*
Y24571D01*
X121464D01*
Y24464D01*
X121356D01*
Y24356D01*
Y24249D01*
Y24141D01*
X121249D01*
Y24034D01*
Y23926D01*
Y23819D01*
X121142D01*
Y23711D01*
X121249D01*
Y23604D01*
X121142D01*
Y23497D01*
Y23389D01*
Y23282D01*
X121034D01*
Y23174D01*
Y23067D01*
Y22959D01*
X120927D01*
Y22852D01*
X121249D01*
Y22959D01*
X121356D01*
Y23067D01*
X121464D01*
Y23174D01*
X121356D01*
Y23282D01*
X121464D01*
Y23174D01*
X121571D01*
Y23282D01*
X121679D01*
Y23389D01*
X121786D01*
Y23497D01*
X121894D01*
Y23604D01*
X122001D01*
Y23711D01*
X122323D01*
Y23819D01*
X122216D01*
Y23926D01*
X122538D01*
Y24034D01*
X122646D01*
Y24141D01*
X122753D01*
Y24249D01*
X122861D01*
Y24356D01*
X122968D01*
Y24464D01*
X123075D01*
Y24571D01*
X123183D01*
Y24678D01*
X123290D01*
Y24786D01*
X123398D01*
Y24893D01*
X123505D01*
Y25001D01*
X123828D01*
Y25108D01*
X123720D01*
Y25216D01*
X124042D01*
Y25323D01*
X123935D01*
Y25431D01*
X124042D01*
Y25323D01*
X124150D01*
Y25431D01*
X124257D01*
Y25538D01*
X124365D01*
Y25645D01*
X124472D01*
Y25753D01*
X124580D01*
Y25860D01*
X124687D01*
Y25968D01*
X124794D01*
Y25860D01*
X124902D01*
Y25968D01*
X124794D01*
Y26075D01*
X124902D01*
Y26183D01*
X125009D01*
Y26075D01*
X125117D01*
Y26183D01*
X125009D01*
Y26290D01*
X125117D01*
Y26183D01*
X125224D01*
Y26290D01*
X125976D01*
Y26183D01*
X126084D01*
Y26290D01*
X126836D01*
Y26183D01*
X126943D01*
Y26290D01*
X127695D01*
Y26183D01*
X127803D01*
Y26290D01*
X128125D01*
Y26183D01*
D02*
G37*
G36*
X86654D02*
X86761D01*
Y26075D01*
X86869D01*
Y26183D01*
X86976D01*
Y26075D01*
X87298D01*
Y25968D01*
X87406D01*
Y25860D01*
X87728D01*
Y25753D01*
X87836D01*
Y25645D01*
X87943D01*
Y25538D01*
X88050D01*
Y25431D01*
X88158D01*
Y25323D01*
X88265D01*
Y25216D01*
X88373D01*
Y25108D01*
Y25001D01*
X88480D01*
Y24893D01*
Y24786D01*
X88588D01*
Y24678D01*
X88695D01*
Y24571D01*
Y24464D01*
Y24356D01*
Y24249D01*
Y24141D01*
X88802D01*
Y24034D01*
X88695D01*
Y23926D01*
X88802D01*
Y23819D01*
X88695D01*
Y23711D01*
X88802D01*
Y23604D01*
X88695D01*
Y23497D01*
Y23389D01*
Y23282D01*
Y23174D01*
Y23067D01*
X88588D01*
Y22959D01*
Y22852D01*
Y22745D01*
X88480D01*
Y22637D01*
Y22530D01*
X88373D01*
Y22422D01*
Y22315D01*
X88265D01*
Y22207D01*
Y22100D01*
X88158D01*
Y21993D01*
Y21885D01*
X88050D01*
Y21778D01*
X87943D01*
Y21670D01*
X87836D01*
Y21563D01*
X87943D01*
Y21455D01*
X87836D01*
Y21563D01*
X87728D01*
Y21455D01*
X87621D01*
Y21348D01*
X87513D01*
Y21240D01*
X87406D01*
Y21133D01*
X87513D01*
Y21025D01*
X87406D01*
Y21133D01*
X87298D01*
Y21025D01*
X87191D01*
Y20918D01*
X87083D01*
Y20811D01*
X86761D01*
Y20703D01*
X86654D01*
Y20596D01*
X86331D01*
Y20488D01*
X86009D01*
Y20381D01*
X85902D01*
Y20274D01*
X86009D01*
Y20166D01*
X85902D01*
Y20059D01*
X86009D01*
Y19951D01*
X86116D01*
Y19844D01*
X86224D01*
Y19736D01*
X86116D01*
Y19629D01*
X86224D01*
Y19521D01*
X86116D01*
Y19414D01*
X86331D01*
Y19307D01*
Y19199D01*
X86439D01*
Y19092D01*
Y18984D01*
X86546D01*
Y18877D01*
Y18769D01*
X86654D01*
Y18662D01*
X86546D01*
Y18554D01*
X86761D01*
Y18447D01*
Y18339D01*
X86869D01*
Y18232D01*
Y18125D01*
Y18017D01*
X86976D01*
Y17910D01*
X87083D01*
Y17802D01*
X86976D01*
Y17695D01*
X87083D01*
Y17587D01*
X87191D01*
Y17480D01*
X87083D01*
Y17373D01*
X86976D01*
Y17480D01*
X86869D01*
Y17373D01*
X86761D01*
Y17480D01*
X86654D01*
Y17373D01*
X86546D01*
Y17480D01*
X86439D01*
Y17373D01*
X86331D01*
Y17480D01*
X86224D01*
Y17373D01*
X86116D01*
Y17480D01*
X86009D01*
Y17373D01*
X85902D01*
Y17480D01*
X85794D01*
Y17373D01*
X85687D01*
Y17480D01*
X85579D01*
Y17373D01*
X85472D01*
Y17480D01*
X85364D01*
Y17373D01*
X85257D01*
Y17480D01*
X85150D01*
Y17373D01*
X85042D01*
Y17480D01*
X84935D01*
Y17373D01*
X84827D01*
Y17480D01*
X84720D01*
Y17587D01*
X84612D01*
Y17480D01*
X84720D01*
Y17373D01*
X84612D01*
Y17480D01*
X84505D01*
Y17587D01*
X84397D01*
Y17695D01*
X84505D01*
Y17802D01*
X84397D01*
Y17910D01*
Y18017D01*
Y18125D01*
X84290D01*
Y18232D01*
X84183D01*
Y18339D01*
X84290D01*
Y18447D01*
X84183D01*
Y18554D01*
X84075D01*
Y18662D01*
X83968D01*
Y18769D01*
X84075D01*
Y18877D01*
X83968D01*
Y18984D01*
X83860D01*
Y19092D01*
X83753D01*
Y19199D01*
X83860D01*
Y19307D01*
X83753D01*
Y19414D01*
Y19521D01*
Y19629D01*
X83645D01*
Y19736D01*
X83538D01*
Y19844D01*
X83645D01*
Y19951D01*
X83323D01*
Y19844D01*
X83216D01*
Y19736D01*
Y19629D01*
Y19521D01*
X83108D01*
Y19414D01*
X83216D01*
Y19307D01*
X83108D01*
Y19199D01*
Y19092D01*
Y18984D01*
X83001D01*
Y18877D01*
Y18769D01*
Y18662D01*
X82893D01*
Y18554D01*
X83001D01*
Y18447D01*
X82893D01*
Y18339D01*
X83001D01*
Y18232D01*
X82893D01*
Y18125D01*
X82786D01*
Y18017D01*
X82893D01*
Y17910D01*
X82786D01*
Y17802D01*
X82678D01*
Y17695D01*
X82786D01*
Y17587D01*
X82678D01*
Y17480D01*
X82571D01*
Y17373D01*
X82464D01*
Y17480D01*
X82356D01*
Y17373D01*
X82249D01*
Y17480D01*
X82141D01*
Y17373D01*
X82034D01*
Y17480D01*
X81926D01*
Y17373D01*
X81819D01*
Y17480D01*
X81712D01*
Y17373D01*
X81604D01*
Y17480D01*
X81497D01*
Y17373D01*
X81389D01*
Y17480D01*
X81282D01*
Y17373D01*
X81174D01*
Y17480D01*
X81067D01*
Y17373D01*
X80959D01*
Y17480D01*
X80852D01*
Y17373D01*
X80744D01*
Y17480D01*
X80637D01*
Y17373D01*
X80530D01*
Y17480D01*
X80422D01*
Y17373D01*
X80315D01*
Y17480D01*
X80207D01*
Y17587D01*
X80315D01*
Y17695D01*
Y17802D01*
Y17910D01*
X80422D01*
Y18017D01*
X80315D01*
Y18125D01*
X80422D01*
Y18232D01*
X80315D01*
Y18339D01*
X80422D01*
Y18447D01*
X80530D01*
Y18554D01*
X80637D01*
Y18662D01*
X80530D01*
Y18769D01*
X80637D01*
Y18877D01*
X80530D01*
Y18984D01*
X80637D01*
Y19092D01*
Y19199D01*
Y19307D01*
X80530D01*
Y19414D01*
X80637D01*
Y19307D01*
X80744D01*
Y19414D01*
X80852D01*
Y19521D01*
X80744D01*
Y19629D01*
X80852D01*
Y19736D01*
X80744D01*
Y19844D01*
X80852D01*
Y19951D01*
X80744D01*
Y20059D01*
X80852D01*
Y20166D01*
X80959D01*
Y20274D01*
X81067D01*
Y20381D01*
X80959D01*
Y20488D01*
X81067D01*
Y20596D01*
X80959D01*
Y20703D01*
X81067D01*
Y20811D01*
Y20918D01*
Y21025D01*
Y21133D01*
X81174D01*
Y21240D01*
Y21348D01*
X81282D01*
Y21455D01*
X81174D01*
Y21563D01*
X81282D01*
Y21670D01*
X81174D01*
Y21778D01*
X81282D01*
Y21885D01*
X81389D01*
Y21993D01*
X81497D01*
Y22100D01*
X81389D01*
Y22207D01*
X81497D01*
Y22315D01*
X81389D01*
Y22422D01*
X81497D01*
Y22530D01*
Y22637D01*
Y22745D01*
Y22852D01*
X81604D01*
Y22959D01*
Y23067D01*
X81712D01*
Y23174D01*
X81604D01*
Y23282D01*
X81712D01*
Y23389D01*
X81604D01*
Y23497D01*
X81712D01*
Y23604D01*
X81819D01*
Y23711D01*
Y23819D01*
Y23926D01*
X81926D01*
Y24034D01*
X81819D01*
Y24141D01*
X81926D01*
Y24249D01*
Y24356D01*
Y24464D01*
X81819D01*
Y24571D01*
X81926D01*
Y24464D01*
X82034D01*
Y24571D01*
Y24678D01*
Y24786D01*
X82141D01*
Y24893D01*
X82034D01*
Y25001D01*
X82141D01*
Y25108D01*
X82034D01*
Y25216D01*
X82141D01*
Y25323D01*
X82249D01*
Y25431D01*
X82141D01*
Y25538D01*
X82249D01*
Y25431D01*
X82356D01*
Y25538D01*
X82249D01*
Y25645D01*
X82356D01*
Y25753D01*
X82249D01*
Y25860D01*
X82356D01*
Y25968D01*
X82249D01*
Y26075D01*
X82356D01*
Y26183D01*
X82249D01*
Y26290D01*
X82356D01*
Y26183D01*
X82464D01*
Y26290D01*
X83001D01*
Y26183D01*
X83108D01*
Y26290D01*
X83860D01*
Y26183D01*
X83968D01*
Y26290D01*
X84720D01*
Y26183D01*
X84827D01*
Y26290D01*
X85579D01*
Y26183D01*
X85687D01*
Y26290D01*
X86009D01*
Y26183D01*
X86116D01*
Y26290D01*
X86439D01*
Y26183D01*
X86546D01*
Y26290D01*
X86654D01*
Y26183D01*
D02*
G37*
G36*
X136720Y22745D02*
X136828D01*
Y22637D01*
X136720D01*
Y22745D01*
X136613D01*
Y22852D01*
X136720D01*
Y22745D01*
D02*
G37*
G36*
X66455Y21885D02*
X66563D01*
Y21778D01*
X66455D01*
Y21885D01*
X66348D01*
Y21993D01*
X66455D01*
Y21885D01*
D02*
G37*
G36*
X66240D02*
X66348D01*
Y21778D01*
X66240D01*
Y21885D01*
X66133D01*
Y21993D01*
X66240D01*
Y21885D01*
D02*
G37*
G36*
X66025D02*
X66133D01*
Y21778D01*
X66025D01*
Y21885D01*
X65918D01*
Y21993D01*
X66025D01*
Y21885D01*
D02*
G37*
G36*
X65596D02*
X65703D01*
Y21778D01*
X65381D01*
Y21885D01*
X65488D01*
Y21993D01*
X65596D01*
Y21885D01*
D02*
G37*
G36*
X65166D02*
X65273D01*
Y21778D01*
X65381D01*
Y21670D01*
X65273D01*
Y21778D01*
X65166D01*
Y21885D01*
X65058D01*
Y21993D01*
X65166D01*
Y21885D01*
D02*
G37*
G36*
X70968Y21455D02*
X70860D01*
Y21348D01*
X70753D01*
Y21455D01*
X70645D01*
Y21563D01*
X70968D01*
Y21455D01*
D02*
G37*
G36*
X64306Y21240D02*
X64414D01*
Y21133D01*
X64521D01*
Y21025D01*
X64414D01*
Y21133D01*
X64306D01*
Y21240D01*
X64199D01*
Y21348D01*
X64306D01*
Y21240D01*
D02*
G37*
G36*
X64091D02*
X64199D01*
Y21133D01*
X64306D01*
Y21025D01*
X64199D01*
Y21133D01*
X64091D01*
Y21240D01*
X63984D01*
Y21348D01*
X64091D01*
Y21240D01*
D02*
G37*
G36*
X68282Y18125D02*
X68389D01*
Y18017D01*
X68067D01*
Y17910D01*
X67959D01*
Y18017D01*
X67852D01*
Y18125D01*
X68174D01*
Y18232D01*
X68282D01*
Y18125D01*
D02*
G37*
G36*
X67852Y17910D02*
X67959D01*
Y17802D01*
X67637D01*
Y17910D01*
X67744D01*
Y18017D01*
X67852D01*
Y17910D01*
D02*
G37*
G36*
X67637Y17695D02*
X67744D01*
Y17587D01*
X67637D01*
Y17695D01*
X67530D01*
Y17802D01*
X67637D01*
Y17695D01*
D02*
G37*
G36*
X67530Y17587D02*
X67422D01*
Y17480D01*
X67315D01*
Y17587D01*
X67207D01*
Y17695D01*
X67530D01*
Y17587D01*
D02*
G37*
G36*
X70645Y17050D02*
X70753D01*
Y16943D01*
X70645D01*
Y17050D01*
X70538D01*
Y17158D01*
X70645D01*
Y17050D01*
D02*
G37*
G36*
X75265Y15439D02*
X75373D01*
Y15331D01*
X75480D01*
Y15224D01*
X75373D01*
Y15331D01*
X75265D01*
Y15439D01*
X75158D01*
Y15546D01*
X75265D01*
Y15439D01*
D02*
G37*
G36*
X75480Y16513D02*
X75587D01*
Y16406D01*
X75695D01*
Y16298D01*
X75587D01*
Y16191D01*
X75695D01*
Y16083D01*
X75802D01*
Y15976D01*
X75910D01*
Y15868D01*
X75802D01*
Y15761D01*
X75910D01*
Y15654D01*
X76017D01*
Y15546D01*
X76125D01*
Y15439D01*
X76017D01*
Y15331D01*
X76125D01*
Y15224D01*
X76232D01*
Y15116D01*
X76340D01*
Y15009D01*
Y14901D01*
Y14794D01*
X76447D01*
Y14687D01*
X76554D01*
Y14579D01*
X76447D01*
Y14472D01*
X76554D01*
Y14364D01*
X76662D01*
Y14257D01*
X76769D01*
Y14149D01*
Y14042D01*
Y13935D01*
X76877D01*
Y13827D01*
X76984D01*
Y13720D01*
X76877D01*
Y13612D01*
X77092D01*
Y13505D01*
Y13397D01*
X77199D01*
Y13290D01*
X77306D01*
Y13183D01*
X77414D01*
Y13075D01*
X77306D01*
Y13183D01*
X77199D01*
Y13075D01*
X77306D01*
Y12968D01*
X77414D01*
Y12860D01*
X77306D01*
Y12753D01*
X77521D01*
Y12645D01*
Y12538D01*
X77629D01*
Y12430D01*
X77736D01*
Y12323D01*
X77844D01*
Y12216D01*
X77736D01*
Y12323D01*
X77629D01*
Y12216D01*
X77736D01*
Y12108D01*
X77844D01*
Y12001D01*
Y11893D01*
X77951D01*
Y11786D01*
Y11678D01*
X78059D01*
Y11571D01*
X78166D01*
Y11463D01*
X78273D01*
Y11356D01*
X78166D01*
Y11249D01*
X78273D01*
Y11141D01*
X78381D01*
Y11034D01*
X78488D01*
Y10926D01*
X78381D01*
Y10819D01*
X78488D01*
Y10711D01*
X78596D01*
Y10604D01*
X78703D01*
Y10497D01*
X78596D01*
Y10389D01*
X78703D01*
Y10282D01*
X78811D01*
Y10174D01*
X78918D01*
Y10067D01*
X78811D01*
Y10174D01*
X78703D01*
Y10282D01*
X78596D01*
Y10389D01*
X78488D01*
Y10497D01*
X78381D01*
Y10604D01*
Y10711D01*
X78273D01*
Y10819D01*
Y10926D01*
X78166D01*
Y11034D01*
X78059D01*
Y11141D01*
X77951D01*
Y11249D01*
X78059D01*
Y11356D01*
X77844D01*
Y11463D01*
Y11571D01*
X77736D01*
Y11678D01*
X77629D01*
Y11786D01*
X77521D01*
Y11893D01*
Y12001D01*
Y12108D01*
X77414D01*
Y12216D01*
X77306D01*
Y12323D01*
X77199D01*
Y12430D01*
X77092D01*
Y12538D01*
X77199D01*
Y12645D01*
X76877D01*
Y12753D01*
X76984D01*
Y12860D01*
X76877D01*
Y12968D01*
X76769D01*
Y13075D01*
X76662D01*
Y13183D01*
Y13290D01*
Y13397D01*
X76554D01*
Y13505D01*
X76447D01*
Y13612D01*
X76340D01*
Y13720D01*
X76232D01*
Y13827D01*
X76340D01*
Y13935D01*
X76125D01*
Y14042D01*
Y14149D01*
X76017D01*
Y14257D01*
X75910D01*
Y14364D01*
X75802D01*
Y14472D01*
X75910D01*
Y14579D01*
X75802D01*
Y14687D01*
X75695D01*
Y14794D01*
X75587D01*
Y14901D01*
X75480D01*
Y15009D01*
X75373D01*
Y15116D01*
X75695D01*
Y15009D01*
X75587D01*
Y14901D01*
X75695D01*
Y14794D01*
X75802D01*
Y14687D01*
X75910D01*
Y14579D01*
X76017D01*
Y14472D01*
X76125D01*
Y14364D01*
X76232D01*
Y14257D01*
X76340D01*
Y14149D01*
X76232D01*
Y14042D01*
X76340D01*
Y13935D01*
X76447D01*
Y13827D01*
X76554D01*
Y13720D01*
X76662D01*
Y13612D01*
X76769D01*
Y13505D01*
X76877D01*
Y13397D01*
X76984D01*
Y13505D01*
X76877D01*
Y13612D01*
X76769D01*
Y13720D01*
X76662D01*
Y13827D01*
X76769D01*
Y13935D01*
X76662D01*
Y14042D01*
X76554D01*
Y14149D01*
X76447D01*
Y14257D01*
X76554D01*
Y14364D01*
X76447D01*
Y14472D01*
X76340D01*
Y14579D01*
X76232D01*
Y14687D01*
X76340D01*
Y14794D01*
X76232D01*
Y14901D01*
X76125D01*
Y15009D01*
X76017D01*
Y15116D01*
X76125D01*
Y15224D01*
X76017D01*
Y15331D01*
X75910D01*
Y15439D01*
X75802D01*
Y15546D01*
X75910D01*
Y15654D01*
X75802D01*
Y15761D01*
X75695D01*
Y15868D01*
X75587D01*
Y15976D01*
X75695D01*
Y16083D01*
X75587D01*
Y16191D01*
X75480D01*
Y16298D01*
X75373D01*
Y16406D01*
X75480D01*
Y16513D01*
X75373D01*
Y16621D01*
X75480D01*
Y16513D01*
D02*
G37*
G36*
X78918Y9852D02*
X79026D01*
Y9745D01*
X79133D01*
Y9637D01*
X79026D01*
Y9745D01*
X78918D01*
Y9852D01*
X78811D01*
Y9959D01*
X78918D01*
Y9852D01*
D02*
G37*
%LPC*%
G36*
X68174Y31125D02*
X68067D01*
Y31017D01*
X68174D01*
Y31125D01*
D02*
G37*
G36*
X69034Y25968D02*
X68926D01*
Y25860D01*
X69034D01*
Y25968D01*
D02*
G37*
G36*
X66025D02*
X65918D01*
Y25860D01*
X66025D01*
Y25968D01*
D02*
G37*
G36*
X56248Y31232D02*
X56141D01*
Y31125D01*
X55819D01*
Y31232D01*
X55711D01*
Y31125D01*
X55174D01*
Y31017D01*
X55282D01*
Y30910D01*
X55174D01*
Y30802D01*
X55282D01*
Y30695D01*
X55174D01*
Y30588D01*
X55282D01*
Y30480D01*
X55174D01*
Y30373D01*
X55067D01*
Y30265D01*
X54959D01*
Y30158D01*
X55067D01*
Y30050D01*
X54959D01*
Y29943D01*
X55067D01*
Y29836D01*
X54959D01*
Y29728D01*
X55067D01*
Y29621D01*
X55174D01*
Y29513D01*
X55282D01*
Y29621D01*
X55389D01*
Y29513D01*
X55711D01*
Y29621D01*
X55819D01*
Y29513D01*
X55926D01*
Y29621D01*
X56034D01*
Y29513D01*
X56141D01*
Y29621D01*
X56034D01*
Y29728D01*
X56141D01*
Y29621D01*
X56248D01*
Y29728D01*
X56356D01*
Y29836D01*
X56463D01*
Y29728D01*
X56571D01*
Y29836D01*
X56463D01*
Y29943D01*
X56571D01*
Y30050D01*
X56678D01*
Y30158D01*
X56786D01*
Y30265D01*
X56678D01*
Y30373D01*
X56786D01*
Y30480D01*
X56678D01*
Y30588D01*
X56786D01*
Y30695D01*
X56678D01*
Y30802D01*
X56786D01*
Y30910D01*
X56678D01*
Y31017D01*
X56571D01*
Y31125D01*
X56248D01*
Y31232D01*
D02*
G37*
G36*
X55067Y29621D02*
X54959D01*
Y29513D01*
X55067D01*
Y29621D01*
D02*
G37*
G36*
X57860Y28546D02*
X57753D01*
Y28439D01*
X57860D01*
Y28546D01*
D02*
G37*
G36*
X55711Y28117D02*
X55604D01*
Y28009D01*
X55711D01*
Y27902D01*
X55604D01*
Y28009D01*
X55496D01*
Y28117D01*
X55389D01*
Y28009D01*
X55496D01*
Y27902D01*
X55389D01*
Y28009D01*
X55282D01*
Y28117D01*
X55174D01*
Y28009D01*
X55282D01*
Y27902D01*
X55174D01*
Y28009D01*
X55067D01*
Y28117D01*
X54959D01*
Y28009D01*
X55067D01*
Y27902D01*
X54959D01*
Y28009D01*
X54852D01*
Y28117D01*
X54744D01*
Y28009D01*
X54852D01*
Y27902D01*
X54744D01*
Y28009D01*
X54637D01*
Y27902D01*
X54530D01*
Y27794D01*
X54422D01*
Y27687D01*
X54315D01*
Y27579D01*
X54422D01*
Y27472D01*
X54315D01*
Y27364D01*
X54422D01*
Y27257D01*
X54315D01*
Y27150D01*
X54422D01*
Y27042D01*
X54315D01*
Y26935D01*
Y26827D01*
Y26720D01*
X54207D01*
Y26612D01*
X54100D01*
Y26505D01*
X54207D01*
Y26397D01*
X54100D01*
Y26290D01*
Y26183D01*
Y26075D01*
X54207D01*
Y25968D01*
X54315D01*
Y25860D01*
X54422D01*
Y25968D01*
X54315D01*
Y26075D01*
X54422D01*
Y25968D01*
X54530D01*
Y26075D01*
X54637D01*
Y25968D01*
X54744D01*
Y25860D01*
X54852D01*
Y25968D01*
X54744D01*
Y26075D01*
X54852D01*
Y25968D01*
X54959D01*
Y26075D01*
X55067D01*
Y25968D01*
X55174D01*
Y25860D01*
X55282D01*
Y25968D01*
X55174D01*
Y26075D01*
X55282D01*
Y25968D01*
X55389D01*
Y26075D01*
X55496D01*
Y26183D01*
X55604D01*
Y26290D01*
X55819D01*
Y26397D01*
Y26505D01*
X55926D01*
Y26612D01*
X56034D01*
Y26720D01*
X56141D01*
Y26827D01*
X56034D01*
Y26935D01*
X56141D01*
Y27042D01*
X56034D01*
Y27150D01*
X56141D01*
Y27257D01*
Y27364D01*
Y27472D01*
X56034D01*
Y27579D01*
X56141D01*
Y27687D01*
X56034D01*
Y27794D01*
X55926D01*
Y27902D01*
X55819D01*
Y28009D01*
X55711D01*
Y28117D01*
D02*
G37*
G36*
X62802Y21670D02*
X62695D01*
Y21563D01*
X62587D01*
Y21670D01*
X62480D01*
Y21563D01*
X62587D01*
Y21455D01*
X62695D01*
Y21348D01*
X62802D01*
Y21455D01*
X62910D01*
Y21348D01*
X63017D01*
Y21455D01*
X62910D01*
Y21563D01*
X62802D01*
Y21670D01*
D02*
G37*
G36*
X71827Y21455D02*
X71720D01*
Y21348D01*
X71827D01*
Y21455D01*
D02*
G37*
G36*
X71183Y19736D02*
X71075D01*
Y19629D01*
X71183D01*
Y19736D01*
D02*
G37*
G36*
X71827Y20166D02*
X71505D01*
Y20059D01*
X71397D01*
Y19951D01*
X71075D01*
Y19844D01*
X71183D01*
Y19736D01*
X71290D01*
Y19629D01*
X71397D01*
Y19521D01*
X71505D01*
Y19629D01*
X71612D01*
Y19736D01*
X71505D01*
Y19844D01*
X71612D01*
Y19951D01*
X71720D01*
Y20059D01*
X71827D01*
Y20166D01*
D02*
G37*
G36*
X72472Y19092D02*
X72364D01*
Y18984D01*
X72472D01*
Y19092D01*
D02*
G37*
G36*
X75050Y17802D02*
X74943D01*
Y17695D01*
X75050D01*
Y17802D01*
D02*
G37*
G36*
X76769Y16513D02*
X76662D01*
Y16406D01*
X76769D01*
Y16513D01*
D02*
G37*
G36*
X78273Y15868D02*
X78166D01*
Y15761D01*
X78273D01*
Y15868D01*
D02*
G37*
G36*
X78488Y15654D02*
X78381D01*
Y15546D01*
X78488D01*
Y15654D01*
D02*
G37*
G36*
X78059D02*
X77951D01*
Y15546D01*
X78059D01*
Y15654D01*
D02*
G37*
G36*
X79348Y14794D02*
X79240D01*
Y14687D01*
X79348D01*
Y14794D01*
D02*
G37*
G36*
X79993Y14579D02*
X79885D01*
Y14472D01*
X79993D01*
Y14579D01*
D02*
G37*
G36*
X80207Y14364D02*
X80100D01*
Y14257D01*
X80207D01*
Y14364D01*
D02*
G37*
G36*
X81282Y13290D02*
X81174D01*
Y13183D01*
X81282D01*
Y13290D01*
D02*
G37*
G36*
X111365Y24464D02*
X111257D01*
Y24356D01*
X111365D01*
Y24464D01*
D02*
G37*
G36*
X108571Y19521D02*
X108464D01*
Y19414D01*
X108571D01*
Y19521D01*
D02*
G37*
G36*
X100406Y25968D02*
X100298D01*
Y25860D01*
X100406D01*
Y25968D01*
D02*
G37*
G36*
X97827Y24678D02*
X97720D01*
Y24571D01*
X97827D01*
Y24464D01*
X97720D01*
Y24571D01*
X97612D01*
Y24464D01*
X97505D01*
Y24571D01*
X97398D01*
Y24464D01*
X97075D01*
Y24356D01*
X96968D01*
Y24249D01*
X96860D01*
Y24356D01*
X96753D01*
Y24249D01*
X96645D01*
Y24141D01*
X96538D01*
Y24249D01*
X96431D01*
Y24141D01*
X96538D01*
Y24034D01*
X96216D01*
Y23926D01*
X96323D01*
Y23819D01*
X96001D01*
Y23711D01*
X96108D01*
Y23604D01*
X96001D01*
Y23497D01*
X95893D01*
Y23389D01*
X95786D01*
Y23282D01*
X95893D01*
Y23174D01*
X95786D01*
Y23067D01*
X95679D01*
Y22959D01*
X95571D01*
Y22852D01*
X95679D01*
Y22745D01*
X95571D01*
Y22637D01*
X95464D01*
Y22530D01*
X95356D01*
Y22422D01*
X95464D01*
Y22315D01*
X95356D01*
Y22207D01*
Y22100D01*
Y21993D01*
X95249D01*
Y21885D01*
Y21778D01*
Y21670D01*
X95141D01*
Y21563D01*
X95249D01*
Y21455D01*
X95141D01*
Y21348D01*
Y21240D01*
Y21133D01*
X95249D01*
Y21025D01*
X95141D01*
Y21133D01*
X95034D01*
Y21025D01*
X95141D01*
Y20918D01*
X95034D01*
Y20811D01*
X95141D01*
Y20703D01*
X95034D01*
Y20596D01*
X95141D01*
Y20488D01*
X95034D01*
Y20381D01*
X95141D01*
Y20274D01*
X95249D01*
Y20166D01*
X95141D01*
Y20059D01*
X95249D01*
Y19951D01*
X95141D01*
Y19844D01*
X95249D01*
Y19736D01*
X95356D01*
Y19629D01*
X95464D01*
Y19521D01*
X95571D01*
Y19414D01*
X95679D01*
Y19307D01*
X95786D01*
Y19199D01*
X95893D01*
Y19307D01*
X96001D01*
Y19199D01*
X96968D01*
Y19307D01*
X97075D01*
Y19199D01*
X97183D01*
Y19307D01*
X97290D01*
Y19414D01*
X97612D01*
Y19521D01*
X97720D01*
Y19414D01*
X97827D01*
Y19521D01*
X97720D01*
Y19629D01*
X97827D01*
Y19736D01*
X97935D01*
Y19629D01*
X98042D01*
Y19736D01*
X97935D01*
Y19844D01*
X98042D01*
Y19951D01*
X98150D01*
Y19844D01*
X98257D01*
Y19951D01*
X98150D01*
Y20059D01*
X98257D01*
Y20166D01*
X98365D01*
Y20274D01*
X98472D01*
Y20381D01*
Y20488D01*
X98579D01*
Y20596D01*
Y20703D01*
X98687D01*
Y20811D01*
X98794D01*
Y20918D01*
Y21025D01*
Y21133D01*
X98902D01*
Y21240D01*
Y21348D01*
Y21455D01*
X99009D01*
Y21563D01*
X99117D01*
Y21670D01*
X99009D01*
Y21778D01*
X99117D01*
Y21885D01*
X99009D01*
Y21993D01*
X99117D01*
Y22100D01*
Y22207D01*
Y22315D01*
X99009D01*
Y22422D01*
X99117D01*
Y22315D01*
X99224D01*
Y22422D01*
Y22530D01*
Y22637D01*
X99331D01*
Y22745D01*
X99224D01*
Y22852D01*
X99331D01*
Y22959D01*
X99224D01*
Y23067D01*
X99331D01*
Y23174D01*
X99224D01*
Y23282D01*
Y23389D01*
Y23497D01*
X99117D01*
Y23604D01*
X99009D01*
Y23711D01*
X99117D01*
Y23819D01*
X99009D01*
Y23926D01*
Y24034D01*
Y24141D01*
X98902D01*
Y24249D01*
X98794D01*
Y24356D01*
X98472D01*
Y24464D01*
X98150D01*
Y24571D01*
X98042D01*
Y24464D01*
X97935D01*
Y24571D01*
X97827D01*
Y24678D01*
D02*
G37*
G36*
X93315Y18447D02*
X93207D01*
Y18339D01*
X93315D01*
Y18447D01*
D02*
G37*
G36*
X93745Y18017D02*
X93637D01*
Y17910D01*
X93745D01*
Y18017D01*
D02*
G37*
G36*
X144348Y24356D02*
X144241D01*
Y24249D01*
X144348D01*
Y24356D01*
D02*
G37*
G36*
X123613Y20811D02*
X123505D01*
Y20703D01*
X123613D01*
Y20811D01*
D02*
G37*
G36*
X122323Y18662D02*
X122216D01*
Y18554D01*
X122323D01*
Y18662D01*
D02*
G37*
G36*
X85794Y24464D02*
X85042D01*
Y24356D01*
X84935D01*
Y24464D01*
X84612D01*
Y24356D01*
X84505D01*
Y24464D01*
X84397D01*
Y24356D01*
Y24249D01*
Y24141D01*
X84505D01*
Y24034D01*
X84397D01*
Y24141D01*
X84290D01*
Y24034D01*
X84183D01*
Y23926D01*
X84290D01*
Y23819D01*
X84183D01*
Y23711D01*
X84290D01*
Y23604D01*
X84183D01*
Y23497D01*
X84290D01*
Y23389D01*
X84183D01*
Y23282D01*
X84075D01*
Y23174D01*
X84183D01*
Y23067D01*
X84075D01*
Y22959D01*
X83968D01*
Y22852D01*
X84075D01*
Y22745D01*
X83968D01*
Y22637D01*
X84075D01*
Y22530D01*
X83968D01*
Y22422D01*
X83860D01*
Y22315D01*
X83753D01*
Y22207D01*
X83860D01*
Y22100D01*
X83753D01*
Y21993D01*
X83860D01*
Y21885D01*
X83968D01*
Y21993D01*
X84075D01*
Y21885D01*
X84183D01*
Y21993D01*
X84290D01*
Y21885D01*
X84397D01*
Y21993D01*
X84505D01*
Y21885D01*
X84827D01*
Y21993D01*
X84935D01*
Y21885D01*
X85042D01*
Y21993D01*
X85150D01*
Y21885D01*
X85257D01*
Y21993D01*
X85579D01*
Y22100D01*
X85687D01*
Y22207D01*
X85794D01*
Y22315D01*
X85902D01*
Y22422D01*
X86009D01*
Y22530D01*
X85902D01*
Y22637D01*
X86116D01*
Y22745D01*
Y22852D01*
X86224D01*
Y22959D01*
X86116D01*
Y23067D01*
X86224D01*
Y23174D01*
Y23282D01*
Y23389D01*
X86331D01*
Y23497D01*
X86224D01*
Y23604D01*
X86331D01*
Y23497D01*
X86439D01*
Y23604D01*
X86331D01*
Y23711D01*
Y23819D01*
Y23926D01*
X86224D01*
Y24034D01*
X86116D01*
Y24141D01*
X86224D01*
Y24249D01*
X85902D01*
Y24356D01*
X85794D01*
Y24464D01*
D02*
G37*
G36*
Y20381D02*
X85687D01*
Y20274D01*
X85794D01*
Y20381D01*
D02*
G37*
G36*
X83430Y20166D02*
X83323D01*
Y20059D01*
X83430D01*
Y20166D01*
D02*
G37*
G36*
X76769Y13505D02*
X76662D01*
Y13397D01*
X76769D01*
Y13505D01*
D02*
G37*
G36*
X76984Y13290D02*
X76877D01*
Y13183D01*
X76984D01*
Y13290D01*
D02*
G37*
%LPD*%
D10*
X162016Y187008D02*
G03*
X162016Y187008I-787J0D01*
G01*
D11*
X83843Y59122D02*
G03*
X83843Y59122I-300J0D01*
G01*
X83174Y155555D02*
G03*
X83174Y155555I-300J0D01*
G01*
X93194Y69559D02*
Y70161D01*
Y82158D02*
Y82759D01*
X106394D01*
Y69559D02*
Y70161D01*
X93194Y69559D02*
X106394D01*
Y82158D02*
Y82759D01*
X91900Y165900D02*
Y166501D01*
Y178499D02*
Y179100D01*
X105100D01*
Y165900D02*
Y166501D01*
X91900Y165900D02*
X105100D01*
Y178499D02*
Y179100D01*
X93254Y66422D02*
X108833D01*
X93254Y51822D02*
X108833D01*
X92585Y162855D02*
X108163D01*
X92585Y148255D02*
X108163D01*
X82840Y60659D02*
X84480D01*
X72480D02*
X74120D01*
X72480D02*
Y82459D01*
X82840D02*
X84480D01*
Y60659D02*
Y82459D01*
X75980Y58159D02*
X80980D01*
X78480Y55159D02*
X78980Y58159D01*
X78480Y55159D02*
X79480Y58159D01*
X78480Y55159D02*
X79980Y58159D01*
X78480Y55159D02*
X80480Y58159D01*
X78480Y55159D02*
X80980Y58159D01*
X77980D02*
X78480Y55159D01*
X77480Y58159D02*
X78480Y55159D01*
X76980Y58159D02*
X78480Y55159D01*
X76480Y58159D02*
X78480Y55159D01*
X75980Y58159D02*
X78480Y55159D01*
X75980D02*
X80980D01*
X78480Y54159D02*
Y59159D01*
X72480Y82459D02*
X74120D01*
X82155Y158403D02*
X83795D01*
X71795D02*
X73435D01*
X71795D02*
Y180203D01*
X82155D02*
X83795D01*
Y158403D02*
Y180203D01*
X75295Y155903D02*
X80295D01*
X77795Y152903D02*
X78295Y155903D01*
X77795Y152903D02*
X78795Y155903D01*
X77795Y152903D02*
X79295Y155903D01*
X77795Y152903D02*
X79795Y155903D01*
X77795Y152903D02*
X80295Y155903D01*
X77295D02*
X77795Y152903D01*
X76795Y155903D02*
X77795Y152903D01*
X76295Y155903D02*
X77795Y152903D01*
X75795Y155903D02*
X77795Y152903D01*
X75295Y155903D02*
X77795Y152903D01*
X75295D02*
X80295D01*
X77795Y151903D02*
Y156903D01*
X71795Y180203D02*
X73435D01*
D12*
X85519Y107008D02*
G03*
X85519Y107008I-197J0D01*
G01*
X84425Y202630D02*
G03*
X84425Y202630I-197J0D01*
G01*
D13*
X164576Y17520D02*
Y226575D01*
X214376D01*
Y197638D02*
Y226575D01*
Y46457D02*
Y197638D01*
Y17520D02*
Y46457D01*
X164576Y17520D02*
X214376D01*
Y197638D02*
X238676D01*
Y46457D02*
Y197638D01*
X214376Y46457D02*
X238676D01*
X39887Y5681D02*
Y8181D01*
X38638Y6931D01*
X40304D01*
X42803Y8181D02*
X41137D01*
Y6931D01*
X41970Y7348D01*
X42387D01*
X42803Y6931D01*
Y6098D01*
X42387Y5681D01*
X41554D01*
X41137Y6098D01*
X43636Y7764D02*
X44053Y8181D01*
X44886D01*
X45302Y7764D01*
Y6098D01*
X44886Y5681D01*
X44053D01*
X43636Y6098D01*
Y7764D01*
X46135D02*
X46552Y8181D01*
X47385D01*
X47802Y7764D01*
Y7348D01*
X47385Y6931D01*
X46968D01*
X47385D01*
X47802Y6515D01*
Y6098D01*
X47385Y5681D01*
X46552D01*
X46135Y6098D01*
X48635Y6931D02*
X50301D01*
X51134Y8181D02*
Y5681D01*
X51967Y6515D01*
X52800Y5681D01*
Y8181D01*
X53633D02*
Y5681D01*
X54883D01*
X55299Y6098D01*
Y6515D01*
X54883Y6931D01*
X53633D01*
X54883D01*
X55299Y7348D01*
Y7764D01*
X54883Y8181D01*
X53633D01*
X56132Y6931D02*
X57798D01*
X58631Y5681D02*
Y7348D01*
X59464Y8181D01*
X60298Y7348D01*
Y5681D01*
Y6931D01*
X58631D01*
X61130Y8181D02*
Y6515D01*
X61964Y5681D01*
X62797Y6515D01*
Y8181D01*
X63630Y6931D02*
X65296D01*
X67795Y7764D02*
X67378Y8181D01*
X66545D01*
X66129Y7764D01*
Y7348D01*
X66545Y6931D01*
X67378D01*
X67795Y6515D01*
Y6098D01*
X67378Y5681D01*
X66545D01*
X66129Y6098D01*
X68628Y8181D02*
Y5681D01*
X69461Y6515D01*
X70294Y5681D01*
Y8181D01*
X38638Y1483D02*
Y3982D01*
X39887D01*
X40304Y3565D01*
Y2732D01*
X39887Y2316D01*
X38638D01*
X39471D02*
X40304Y1483D01*
X42803Y3982D02*
X41137D01*
Y1483D01*
X42803D01*
X41137Y2732D02*
X41970D01*
X43636Y3982D02*
Y2316D01*
X44469Y1483D01*
X45302Y2316D01*
Y3982D01*
X46135Y1483D02*
Y1899D01*
X46552D01*
Y1483D01*
X46135D01*
X50717D02*
Y3149D01*
X51550Y3982D01*
X52383Y3149D01*
Y1483D01*
Y2732D01*
X50717D01*
X38638Y-2716D02*
Y-217D01*
X39471Y-1050D01*
X40304Y-217D01*
Y-2716D01*
X41554Y-1050D02*
X42387D01*
X42803Y-1467D01*
Y-2716D01*
X41554D01*
X41137Y-2300D01*
X41554Y-1884D01*
X42803D01*
X43636Y-1050D02*
Y-2716D01*
Y-1884D01*
X44053Y-1467D01*
X44469Y-1050D01*
X44886D01*
X47802D02*
X46552D01*
X46135Y-1467D01*
Y-2300D01*
X46552Y-2716D01*
X47802D01*
X48635Y-217D02*
Y-2716D01*
Y-1467D01*
X49051Y-1050D01*
X49884D01*
X50301Y-1467D01*
Y-2716D01*
X55299D02*
X53633D01*
X55299Y-1050D01*
Y-634D01*
X54883Y-217D01*
X54049D01*
X53633Y-634D01*
X56132D02*
X56549Y-217D01*
X57382D01*
X57798Y-634D01*
Y-2300D01*
X57382Y-2716D01*
X56549D01*
X56132Y-2300D01*
Y-634D01*
X60298Y-2716D02*
X58631D01*
X60298Y-1050D01*
Y-634D01*
X59881Y-217D01*
X59048D01*
X58631Y-634D01*
X61130D02*
X61547Y-217D01*
X62380D01*
X62797Y-634D01*
Y-2300D01*
X62380Y-2716D01*
X61547D01*
X61130Y-2300D01*
Y-634D01*
X165198Y232057D02*
X164365D01*
X164781D01*
Y229974D01*
X164365Y229557D01*
X163948D01*
X163532Y229974D01*
X167697Y232057D02*
X166031D01*
Y230807D01*
X166864Y231224D01*
X167280D01*
X167697Y230807D01*
Y229974D01*
X167280Y229557D01*
X166447D01*
X166031Y229974D01*
X45697Y67358D02*
X44864D01*
X45280D01*
Y65276D01*
X44864Y64859D01*
X44447D01*
X44030Y65276D01*
X47779Y64859D02*
Y67358D01*
X46530Y66109D01*
X48196D01*
X45697Y106377D02*
X44864D01*
X45280D01*
Y104294D01*
X44864Y103878D01*
X44447D01*
X44030Y104294D01*
X46530Y105960D02*
X46946Y106377D01*
X47779D01*
X48196Y105960D01*
Y105544D01*
X47779Y105127D01*
X47363D01*
X47779D01*
X48196Y104711D01*
Y104294D01*
X47779Y103878D01*
X46946D01*
X46530Y104294D01*
X45697Y165102D02*
X44864D01*
X45280D01*
Y163020D01*
X44864Y162603D01*
X44447D01*
X44030Y163020D01*
X48196Y162603D02*
X46530D01*
X48196Y164269D01*
Y164686D01*
X47779Y165102D01*
X46946D01*
X46530Y164686D01*
X46119Y203161D02*
X45286D01*
X45702D01*
Y201078D01*
X45286Y200661D01*
X44869D01*
X44453Y201078D01*
X46952Y200661D02*
X47785D01*
X47368D01*
Y203161D01*
X46952Y202744D01*
X127794Y84542D02*
X127378Y84958D01*
X126545D01*
X126128Y84542D01*
Y82876D01*
X126545Y82459D01*
X127378D01*
X127794Y82876D01*
X130294Y82459D02*
X128627D01*
X130294Y84125D01*
Y84542D01*
X129877Y84958D01*
X129044D01*
X128627Y84542D01*
X127794Y182286D02*
X127378Y182702D01*
X126545D01*
X126128Y182286D01*
Y180620D01*
X126545Y180203D01*
X127378D01*
X127794Y180620D01*
X128627Y180203D02*
X129461D01*
X129044D01*
Y182702D01*
X128627Y182286D01*
X87232Y46685D02*
Y49184D01*
X88482D01*
X88898Y48768D01*
Y47935D01*
X88482Y47518D01*
X87232D01*
X88065D02*
X88898Y46685D01*
X91398D02*
X89732D01*
X91398Y48351D01*
Y48768D01*
X90981Y49184D01*
X90148D01*
X89732Y48768D01*
X85944Y143780D02*
Y146279D01*
X87194D01*
X87610Y145862D01*
Y145029D01*
X87194Y144613D01*
X85944D01*
X86777D02*
X87610Y143780D01*
X88443D02*
X89276D01*
X88860D01*
Y146279D01*
X88443Y145862D01*
X87610Y110944D02*
Y112610D01*
X87194Y113027D01*
X86361D01*
X85944Y112610D01*
Y110944D01*
X86361Y110528D01*
X87194D01*
X86777Y111361D02*
X87610Y110528D01*
X87194D02*
X87610Y110944D01*
X90109Y110528D02*
X88443D01*
X90109Y112194D01*
Y112610D01*
X89693Y113027D01*
X88860D01*
X88443Y112610D01*
X86499Y206517D02*
Y208183D01*
X86082Y208599D01*
X85249D01*
X84832Y208183D01*
Y206517D01*
X85249Y206100D01*
X86082D01*
X85666Y206933D02*
X86499Y206100D01*
X86082D02*
X86499Y206517D01*
X87332Y206100D02*
X88165D01*
X87748D01*
Y208599D01*
X87332Y208183D01*
X72441Y88601D02*
Y86102D01*
X73690D01*
X74107Y86519D01*
Y88185D01*
X73690Y88601D01*
X72441D01*
X76606Y86102D02*
X74940D01*
X76606Y87768D01*
Y88185D01*
X76190Y88601D01*
X75357D01*
X74940Y88185D01*
X71102Y186846D02*
Y184346D01*
X72352D01*
X72768Y184763D01*
Y186429D01*
X72352Y186846D01*
X71102D01*
X73602Y184346D02*
X74435D01*
X74018D01*
Y186846D01*
X73602Y186429D01*
X80487Y88601D02*
Y86519D01*
X80903Y86102D01*
X81736D01*
X82153Y86519D01*
Y88601D01*
X84652Y86102D02*
X82986D01*
X84652Y87768D01*
Y88185D01*
X84235Y88601D01*
X83402D01*
X82986Y88185D01*
X80295Y186846D02*
Y184763D01*
X80712Y184346D01*
X81545D01*
X81961Y184763D01*
Y186846D01*
X82794Y184346D02*
X83627D01*
X83211D01*
Y186846D01*
X82794Y186429D01*
D14*
X86897Y106653D02*
Y107008D01*
Y85748D02*
Y86102D01*
X112291Y106653D02*
Y107008D01*
Y85748D02*
Y86102D01*
X86897Y107008D02*
X92251D01*
X106937D02*
X112291D01*
X86897Y85748D02*
X92251D01*
X106937D02*
X112291D01*
X85803Y202276D02*
Y202630D01*
Y181370D02*
Y181724D01*
X111197Y202276D02*
Y202630D01*
Y181370D02*
Y181724D01*
X85803Y202630D02*
X91158D01*
X105842D02*
X111197D01*
X85803Y181370D02*
X91158D01*
X105842D02*
X111197D01*
X114236Y75287D02*
Y78437D01*
X124472Y75287D02*
Y78437D01*
X113311Y171819D02*
Y174969D01*
X123547Y171819D02*
Y174969D01*
D15*
X44566Y150162D02*
X48565D01*
X44859Y51575D02*
X48858D01*
X44566Y92661D02*
X48565D01*
X46566Y94661D02*
Y90662D01*
X46539Y188161D02*
X50538D01*
X48539Y190160D02*
Y186161D01*
X123075Y125046D02*
Y119048D01*
X126074D01*
X127074Y120048D01*
Y121048D01*
X126074Y122047D01*
X123075D01*
X126074D01*
X127074Y123047D01*
Y124047D01*
X126074Y125046D01*
X123075D01*
X130073Y123047D02*
X132072D01*
X133072Y122047D01*
Y119048D01*
X130073D01*
X129073Y120048D01*
X130073Y121048D01*
X133072D01*
X136071Y124047D02*
Y123047D01*
X135071D01*
X137071D01*
X136071D01*
Y120048D01*
X137071Y119048D01*
X149067Y125046D02*
X147067D01*
X146068Y124047D01*
Y120048D01*
X147067Y119048D01*
X149067D01*
X150066Y120048D01*
Y124047D01*
X149067Y125046D01*
X152066Y123047D02*
Y120048D01*
X153066Y119048D01*
X156064D01*
Y123047D01*
X159064Y124047D02*
Y123047D01*
X158064D01*
X160063D01*
X159064D01*
Y120048D01*
X160063Y119048D01*
X-12402Y116191D02*
Y110193D01*
X-9403D01*
X-8403Y111193D01*
Y112192D01*
X-9403Y113192D01*
X-12402D01*
X-9403D01*
X-8403Y114192D01*
Y115191D01*
X-9403Y116191D01*
X-12402D01*
X-5404Y114192D02*
X-3404D01*
X-2405Y113192D01*
Y110193D01*
X-5404D01*
X-6403Y111193D01*
X-5404Y112192D01*
X-2405D01*
X594Y115191D02*
Y114192D01*
X-405D01*
X1594D01*
X594D01*
Y111193D01*
X1594Y110193D01*
X14590D02*
X10591D01*
X14590Y114192D01*
Y115191D01*
X13590Y116191D01*
X11591D01*
X10591Y115191D01*
X-12315Y211715D02*
Y205716D01*
X-9316D01*
X-8316Y206716D01*
Y207716D01*
X-9316Y208716D01*
X-12315D01*
X-9316D01*
X-8316Y209715D01*
Y210715D01*
X-9316Y211715D01*
X-12315D01*
X-5317Y209715D02*
X-3318D01*
X-2318Y208716D01*
Y205716D01*
X-5317D01*
X-6317Y206716D01*
X-5317Y207716D01*
X-2318D01*
X681Y210715D02*
Y209715D01*
X-319D01*
X1681D01*
X681D01*
Y206716D01*
X1681Y205716D01*
X10678D02*
X12677D01*
X11677D01*
Y211715D01*
X10678Y210715D01*
D16*
X88844Y85363D02*
X92176Y82031D01*
X88844D02*
X92176Y85363D01*
X88844Y83697D02*
X92176D01*
X90510Y82031D02*
Y85363D01*
X87550Y181704D02*
X90882Y178372D01*
X87550D02*
X90882Y181704D01*
X87550Y180038D02*
X90882D01*
X89216Y178372D02*
Y181704D01*
M02*
