G04*
G04 #@! TF.GenerationSoftware,Altium Limited,Altium Designer,20.0.11 (256)*
G04*
G04 Layer_Color=8421504*
%FSLAX25Y25*%
%MOIN*%
G70*
G01*
G75*
%ADD17R,0.05394X0.04331*%
%ADD18R,0.05500X0.01700*%
%ADD19R,0.05200X0.13600*%
%ADD20R,0.05000X0.02402*%
%ADD21R,0.06100X0.08600*%
%ADD22R,0.55118X0.27559*%
%ADD23R,0.11024X0.05906*%
D17*
X96503Y101496D02*
D03*
Y96378D02*
D03*
Y91259D02*
D03*
X102684Y101496D02*
D03*
Y96378D02*
D03*
Y91259D02*
D03*
X95409Y197118D02*
D03*
Y192000D02*
D03*
Y186882D02*
D03*
X101591Y197118D02*
D03*
Y192000D02*
D03*
Y186882D02*
D03*
D18*
X108494Y79998D02*
D03*
Y77439D02*
D03*
Y74879D02*
D03*
Y72320D02*
D03*
X91094D02*
D03*
Y74879D02*
D03*
Y77439D02*
D03*
Y79998D02*
D03*
X107200Y176339D02*
D03*
Y173779D02*
D03*
Y171221D02*
D03*
Y168661D02*
D03*
X89800D02*
D03*
Y171221D02*
D03*
Y173779D02*
D03*
Y176339D02*
D03*
D19*
X112643Y59122D02*
D03*
X89443D02*
D03*
X111974Y155555D02*
D03*
X88774D02*
D03*
D20*
X89082Y103878D02*
D03*
Y98878D02*
D03*
Y93878D02*
D03*
Y88878D02*
D03*
X110106Y103878D02*
D03*
Y98878D02*
D03*
Y93878D02*
D03*
Y88878D02*
D03*
X87988Y199500D02*
D03*
Y194500D02*
D03*
Y189500D02*
D03*
Y184500D02*
D03*
X109012Y199500D02*
D03*
Y194500D02*
D03*
Y189500D02*
D03*
Y184500D02*
D03*
D21*
X78480Y78259D02*
D03*
Y64859D02*
D03*
X77795Y176003D02*
D03*
Y162603D02*
D03*
D22*
X14500Y54600D02*
D03*
Y92500D02*
D03*
Y152000D02*
D03*
Y189500D02*
D03*
D23*
X119354Y70760D02*
D03*
Y82965D02*
D03*
X118429Y167291D02*
D03*
Y179496D02*
D03*
M02*
