M48
;Layer_Color=9474304
;FILE_FORMAT=2:5
INCH,LZ
;TYPE=PLATED
T1F00S00C0.00787
T2F00S00C0.04100
T3F00S00C0.12500
T4F00S00C0.12800
%
T01
X0120283Y0059169
X00647Y006052
X0058794
X0052889
X0046983
X0049936Y0066425
X0055841
X0061747
X0067652
Y0054614
X0061747
X0055841
X0049936
X004403
X0046983Y0048709
X0052889
X0058794
X00647
X0067652Y0042803
X0061747
X0055841
X0049936
X004403
X0041078Y0036898
X0046983
X0052889
X0058794
X00647
X0067652Y0030992
X0061747
X0055841
X0049936
X004403
X0038125
X0032219
X0026314
X0020408
X0014503
X0008597
X0002692
X-0003214
X-0009119
X-0012072Y0036898
X-0006166
X-0000261
X0005645
X001155
X0017456
X0023361
X0029267
X0035172
Y0025087
X0041078
X0046983
X0052889
X0058794
X00647
X0029267
X0023361
X0017456
X001155
X0005645
X-0000261
X-0006166
X-0012072
X004403Y0066425
Y012548
X0049936
X0055841
X0061747
X0067652
X00647Y0131386
X0058794
X0052889
X0046983
X0041078
X0035172
X0029267
X0023361
X0017456
X001155
X0005645
X-0000261
X-0006166
X-0012072
X-0009119Y012548
X-0003214
X0002692
X0008597
X0014503
X0020408
X0026314
X0032219
X0038125
X004403Y0137291
X0049936
X0055841
X0061747
X0067652
X00647Y0143197
X0058794
X0052889
X0046983
X0049936Y0149102
X0055841
X0061747
X0067652
X00647Y0155008
X0058794
X0052889
X0046983
X0049936Y0160914
X0055841
X0061747
X0067652
X00647Y0166819
X0058794
X0052889
X0046983
X004403Y0160914
Y0149102
X0119189Y0155638
T02
X0171376Y005685
Y0067716
Y0078583
Y0089449
Y0100315
X0182576Y0094882
Y0084016
Y007315
Y0062283
Y0105748
Y0116614
Y012748
Y0138347
Y0149213
Y0160079
Y0170945
Y0181811
X0171376Y0187244
Y0176378
Y0165512
Y0154646
Y014378
Y0132913
Y0122047
Y0111181
T03
X0176976Y0029447
Y0214647
T04
X019685Y0
X0
Y0244094
X019685
M30
