G04*
G04 #@! TF.GenerationSoftware,Altium Limited,Altium Designer,20.0.11 (256)*
G04*
G04 Layer_Color=8388736*
%FSLAX25Y25*%
%MOIN*%
G70*
G01*
G75*
%ADD18R,0.05500X0.01700*%
%ADD19R,0.05200X0.13600*%
%ADD21R,0.06100X0.08600*%
%ADD24R,0.05800X0.03202*%
%ADD25R,0.13123X0.16194*%
%ADD26R,0.55918X0.28359*%
%ADD27R,0.11824X0.06706*%
%ADD28R,0.06950X0.06950*%
%ADD29C,0.06950*%
%ADD30C,0.17300*%
%ADD31C,0.29934*%
%ADD32C,0.02787*%
D18*
X108494Y79998D02*
D03*
Y77439D02*
D03*
Y74879D02*
D03*
Y72320D02*
D03*
X91094D02*
D03*
Y74879D02*
D03*
Y77439D02*
D03*
Y79998D02*
D03*
X107200Y176339D02*
D03*
Y173779D02*
D03*
Y171221D02*
D03*
Y168661D02*
D03*
X89800D02*
D03*
Y171221D02*
D03*
Y173779D02*
D03*
Y176339D02*
D03*
D19*
X112643Y59122D02*
D03*
X89443D02*
D03*
X111974Y155555D02*
D03*
X88774D02*
D03*
D21*
X78480Y78259D02*
D03*
Y64859D02*
D03*
X77795Y176003D02*
D03*
Y162603D02*
D03*
D24*
X89082Y103878D02*
D03*
Y98878D02*
D03*
Y93878D02*
D03*
Y88878D02*
D03*
X110106Y103878D02*
D03*
Y98878D02*
D03*
Y93878D02*
D03*
Y88878D02*
D03*
X87988Y199500D02*
D03*
Y194500D02*
D03*
Y189500D02*
D03*
Y184500D02*
D03*
X109012Y199500D02*
D03*
Y194500D02*
D03*
Y189500D02*
D03*
Y184500D02*
D03*
D25*
X99594Y96378D02*
D03*
X98500Y192000D02*
D03*
D26*
X14500Y54600D02*
D03*
Y92500D02*
D03*
Y152000D02*
D03*
Y189500D02*
D03*
D27*
X119354Y70760D02*
D03*
Y82965D02*
D03*
X118429Y167291D02*
D03*
Y179496D02*
D03*
D28*
X171376Y187244D02*
D03*
D29*
Y176378D02*
D03*
Y165512D02*
D03*
Y154646D02*
D03*
Y143780D02*
D03*
Y132913D02*
D03*
Y122047D02*
D03*
Y111181D02*
D03*
Y100315D02*
D03*
Y89449D02*
D03*
Y78583D02*
D03*
Y67716D02*
D03*
Y56850D02*
D03*
X182576Y181811D02*
D03*
Y170945D02*
D03*
Y160079D02*
D03*
Y149213D02*
D03*
Y138347D02*
D03*
Y127480D02*
D03*
Y116614D02*
D03*
Y105748D02*
D03*
Y94882D02*
D03*
Y84016D02*
D03*
Y73150D02*
D03*
Y62283D02*
D03*
D30*
X176976Y29447D02*
D03*
Y214647D02*
D03*
D31*
X0Y244094D02*
D03*
X196850D02*
D03*
Y0D02*
D03*
X0D02*
D03*
D32*
X120283Y59169D02*
D03*
X119189Y155638D02*
D03*
M02*
