G04*
G04 #@! TF.GenerationSoftware,Altium Limited,Altium Designer,20.0.11 (256)*
G04*
G04 Layer_Color=16711935*
%FSLAX25Y25*%
%MOIN*%
G70*
G01*
G75*
%ADD12C,0.00394*%
%ADD16C,0.00300*%
%ADD40C,0.00100*%
%ADD41C,0.00000*%
D12*
X93000Y102874D02*
G03*
X93000Y102874I-1969J0D01*
G01*
X91905Y198496D02*
G03*
X91905Y198496I-1969J0D01*
G01*
X87488Y86338D02*
Y106417D01*
X111700Y86338D02*
Y106417D01*
X87488D02*
X111700D01*
X87488Y86338D02*
X111700D01*
X86394Y181961D02*
Y202039D01*
X110606Y181961D02*
Y202039D01*
X86394D02*
X110606D01*
X86394Y181961D02*
X110606D01*
X114039Y70169D02*
X124669D01*
X114039Y83555D02*
X124669D01*
X114039Y70169D02*
Y83555D01*
X124669Y70169D02*
Y83555D01*
X113114Y166701D02*
X123744D01*
X113114Y180087D02*
X123744D01*
X113114Y166701D02*
Y180087D01*
X123744Y166701D02*
Y180087D01*
D16*
X93944Y81124D02*
X97276Y77792D01*
X93944D02*
X97276Y81124D01*
X93944Y79458D02*
X97276D01*
X95610Y77792D02*
Y81124D01*
X92650Y177465D02*
X95982Y174133D01*
X92650D02*
X95982Y177465D01*
X92650Y175799D02*
X95982D01*
X94316Y174133D02*
Y177465D01*
D40*
X93694Y70059D02*
Y82259D01*
X105894D01*
Y70059D02*
Y82259D01*
X93694Y70059D02*
X105894D01*
Y80748D02*
X109844D01*
Y79248D02*
Y80748D01*
X105894Y79248D02*
X109844D01*
X105894D02*
Y80748D01*
Y78189D02*
X109844D01*
Y76689D02*
Y78189D01*
X105894Y76689D02*
X109844D01*
X105894D02*
Y78189D01*
Y75630D02*
X109844D01*
Y74129D02*
Y75630D01*
X105894Y74129D02*
X109844D01*
X105894D02*
Y75630D01*
Y73071D02*
X109844D01*
Y71570D02*
Y73071D01*
X105894Y71570D02*
X109844D01*
X105894D02*
Y73071D01*
X89744Y71570D02*
X93694D01*
X89744D02*
Y73071D01*
X93694D01*
Y71570D02*
Y73071D01*
X89744Y74129D02*
X93694D01*
X89744D02*
Y75630D01*
X93694D01*
Y74129D02*
Y75630D01*
X89744Y76689D02*
X93694D01*
X89744D02*
Y78189D01*
X93694D01*
Y76689D02*
Y78189D01*
X89744Y79248D02*
X93694D01*
X89744D02*
Y80748D01*
X93694D01*
Y79248D02*
Y80748D01*
X92400Y166400D02*
Y178600D01*
X104600D01*
Y166400D02*
Y178600D01*
X92400Y166400D02*
X104600D01*
Y177089D02*
X108550D01*
Y175589D02*
Y177089D01*
X104600Y175589D02*
X108550D01*
X104600D02*
Y177089D01*
Y174530D02*
X108550D01*
Y173029D02*
Y174530D01*
X104600Y173029D02*
X108550D01*
X104600D02*
Y174530D01*
Y171970D02*
X108550D01*
Y170470D02*
Y171970D01*
X104600Y170470D02*
X108550D01*
X104600D02*
Y171970D01*
Y169411D02*
X108550D01*
Y167911D02*
Y169411D01*
X104600Y167911D02*
X108550D01*
X104600D02*
Y169411D01*
X88450Y167911D02*
X92400D01*
X88450D02*
Y169411D01*
X92400D01*
Y167911D02*
Y169411D01*
X88450Y170470D02*
X92400D01*
X88450D02*
Y171970D01*
X92400D01*
Y170470D02*
Y171970D01*
X88450Y173029D02*
X92400D01*
X88450D02*
Y174530D01*
X92400D01*
Y173029D02*
Y174530D01*
X88450Y175589D02*
X92400D01*
X88450D02*
Y177089D01*
X92400D01*
Y175589D02*
Y177089D01*
X88243Y52322D02*
Y65922D01*
X113843D01*
Y52322D02*
Y65922D01*
X88243Y52322D02*
X113843D01*
X110043Y65922D02*
X113843D01*
Y52322D02*
Y65922D01*
X110043Y52322D02*
X113843D01*
X110043D02*
Y65922D01*
X88243Y52322D02*
X92043D01*
X88243D02*
Y65922D01*
X92043D01*
Y52322D02*
Y65922D01*
X87574Y148755D02*
Y162355D01*
X113174D01*
Y148755D02*
Y162355D01*
X87574Y148755D02*
X113174D01*
X109374Y162355D02*
X113174D01*
Y148755D02*
Y162355D01*
X109374Y148755D02*
X113174D01*
X109374D02*
Y162355D01*
X87574Y148755D02*
X91374D01*
X87574D02*
Y162355D01*
X91374D01*
Y148755D02*
Y162355D01*
X72980Y61159D02*
X83980D01*
X72980D02*
Y81959D01*
X83980D01*
Y61159D02*
Y81959D01*
X75980Y58159D02*
X80980D01*
X78480Y55159D02*
X78980Y58159D01*
X78480Y55159D02*
X79480Y58159D01*
X78480Y55159D02*
X79980Y58159D01*
X78480Y55159D02*
X80480Y58159D01*
X78480Y55159D02*
X80980Y58159D01*
X77980D02*
X78480Y55159D01*
X77480Y58159D02*
X78480Y55159D01*
X76980Y58159D02*
X78480Y55159D01*
X76480Y58159D02*
X78480Y55159D01*
X75980Y58159D02*
X78480Y55159D01*
X75980D02*
X80980D01*
X78480Y54159D02*
Y59159D01*
X72295Y158903D02*
X83295D01*
X72295D02*
Y179703D01*
X83295D01*
Y158903D02*
Y179703D01*
X75295Y155903D02*
X80295D01*
X77795Y152903D02*
X78295Y155903D01*
X77795Y152903D02*
X78795Y155903D01*
X77795Y152903D02*
X79295Y155903D01*
X77795Y152903D02*
X79795Y155903D01*
X77795Y152903D02*
X80295Y155903D01*
X77295D02*
X77795Y152903D01*
X76795Y155903D02*
X77795Y152903D01*
X76295Y155903D02*
X77795Y152903D01*
X75795Y155903D02*
X77795Y152903D01*
X75295Y155903D02*
X77795Y152903D01*
X75295D02*
X80295D01*
X77795Y151903D02*
Y156903D01*
D41*
X98594Y82259D02*
G03*
X100994Y82259I1200J0D01*
G01*
X97300Y178600D02*
G03*
X99700Y178600I1200J0D01*
G01*
X90243Y59122D02*
G03*
X90243Y59122I-300J0D01*
G01*
X89574Y155555D02*
G03*
X89574Y155555I-300J0D01*
G01*
M02*
