G04*
G04 #@! TF.GenerationSoftware,Altium Limited,Altium Designer,20.0.11 (256)*
G04*
G04 Layer_Physical_Order=2*
G04 Layer_Color=16711680*
%FSLAX25Y25*%
%MOIN*%
G70*
G01*
G75*
%ADD35R,0.06150X0.06150*%
%ADD36C,0.06150*%
%ADD37C,0.16500*%
%ADD38C,0.29134*%
%ADD39C,0.01987*%
G36*
X-2693Y262073D02*
X200778Y262073D01*
X201276Y262073D01*
X201764Y262045D01*
X203521Y261907D01*
X205710Y261381D01*
X207791Y260519D01*
X209711Y259342D01*
X211423Y257880D01*
X212886Y256168D01*
X214062Y254247D01*
X214924Y252167D01*
X215450Y249977D01*
X215588Y248223D01*
X215617Y247732D01*
X215617Y247732D01*
X215617Y247238D01*
X215617Y-1839D01*
X215617Y-2338D01*
X215617Y-2339D01*
X215591Y-2828D01*
X215440Y-4746D01*
X214877Y-7093D01*
X213953Y-9324D01*
X212691Y-11382D01*
X211123Y-13218D01*
X209288Y-14786D01*
X207229Y-16047D01*
X204998Y-16971D01*
X202651Y-17535D01*
X200291Y-17720D01*
X200244Y-17711D01*
X-3012Y-17711D01*
X-3512Y-17711D01*
X-3999Y-17681D01*
X-5660Y-17550D01*
X-7755Y-17047D01*
X-9746Y-16222D01*
X-11583Y-15097D01*
X-13221Y-13697D01*
X-14620Y-12059D01*
X-15746Y-10222D01*
X-16571Y-8231D01*
X-17074Y-6136D01*
X-17204Y-4476D01*
X-17235Y-3988D01*
X-17235Y-3488D01*
X-17235Y247035D01*
X-17235Y247038D01*
X-17235Y247532D01*
X-17207Y248020D01*
X-17066Y249808D01*
X-16533Y252028D01*
X-15659Y254138D01*
X-14466Y256085D01*
X-12983Y257821D01*
X-11247Y259305D01*
X-9300Y260498D01*
X-7190Y261372D01*
X-4969Y261905D01*
X-2731Y262081D01*
X-2693Y262073D01*
D02*
G37*
%LPC*%
G36*
X196850Y259308D02*
X194470Y259121D01*
X192149Y258564D01*
X189944Y257650D01*
X187908Y256403D01*
X186093Y254852D01*
X184542Y253037D01*
X183295Y251001D01*
X182381Y248796D01*
X181824Y246475D01*
X181637Y244094D01*
X181824Y241715D01*
X182381Y239393D01*
X183295Y237188D01*
X184542Y235152D01*
X186093Y233337D01*
X187908Y231786D01*
X189944Y230539D01*
X192149Y229625D01*
X194470Y229068D01*
X196850Y228881D01*
X199230Y229068D01*
X201552Y229625D01*
X203757Y230539D01*
X205793Y231786D01*
X207608Y233337D01*
X209159Y235152D01*
X210406Y237188D01*
X211320Y239393D01*
X211877Y241715D01*
X212064Y244094D01*
X211877Y246475D01*
X211320Y248796D01*
X210406Y251001D01*
X209159Y253037D01*
X207608Y254852D01*
X205793Y256403D01*
X203757Y257650D01*
X201552Y258564D01*
X199230Y259121D01*
X196850Y259308D01*
D02*
G37*
G36*
X0D02*
X-2380Y259121D01*
X-4701Y258564D01*
X-6907Y257650D01*
X-8942Y256403D01*
X-10758Y254852D01*
X-12308Y253037D01*
X-13556Y251001D01*
X-14469Y248796D01*
X-15026Y246475D01*
X-15214Y244094D01*
X-15026Y241715D01*
X-14469Y239393D01*
X-13556Y237188D01*
X-12308Y235152D01*
X-10758Y233337D01*
X-8942Y231786D01*
X-6907Y230539D01*
X-4701Y229625D01*
X-2380Y229068D01*
X0Y228881D01*
X2380Y229068D01*
X4701Y229625D01*
X6907Y230539D01*
X8942Y231786D01*
X10758Y233337D01*
X12308Y235152D01*
X13556Y237188D01*
X14469Y239393D01*
X15026Y241715D01*
X15214Y244094D01*
X15026Y246475D01*
X14469Y248796D01*
X13556Y251001D01*
X12308Y253037D01*
X10758Y254852D01*
X8942Y256403D01*
X6907Y257650D01*
X4701Y258564D01*
X2380Y259121D01*
X0Y259308D01*
D02*
G37*
G36*
X176976Y223540D02*
X175241Y223369D01*
X173573Y222863D01*
X172036Y222041D01*
X170688Y220935D01*
X169582Y219588D01*
X168761Y218050D01*
X168254Y216382D01*
X168084Y214647D01*
X168254Y212912D01*
X168761Y211244D01*
X169582Y209707D01*
X170688Y208359D01*
X172036Y207253D01*
X173573Y206431D01*
X175241Y205925D01*
X176976Y205754D01*
X178711Y205925D01*
X180379Y206431D01*
X181917Y207253D01*
X183265Y208359D01*
X184371Y209707D01*
X185192Y211244D01*
X185698Y212912D01*
X185869Y214647D01*
X185698Y216382D01*
X185192Y218050D01*
X184371Y219588D01*
X183265Y220935D01*
X181917Y222041D01*
X180379Y222863D01*
X178711Y223369D01*
X176976Y223540D01*
D02*
G37*
G36*
X171376Y169219D02*
X170417Y169092D01*
X169523Y168722D01*
X168755Y168133D01*
X168166Y167365D01*
X167796Y166471D01*
X167670Y165512D01*
X167796Y164552D01*
X168166Y163658D01*
X168755Y162891D01*
X169523Y162302D01*
X170417Y161931D01*
X171376Y161805D01*
X172336Y161931D01*
X173230Y162302D01*
X173997Y162891D01*
X174586Y163658D01*
X174957Y164552D01*
X175083Y165512D01*
X174957Y166471D01*
X174586Y167365D01*
X173997Y168133D01*
X173230Y168722D01*
X172336Y169092D01*
X171376Y169219D01*
D02*
G37*
G36*
X182576Y163786D02*
X181617Y163659D01*
X180723Y163289D01*
X179955Y162700D01*
X179366Y161932D01*
X178996Y161038D01*
X178870Y160079D01*
X178996Y159119D01*
X179366Y158225D01*
X179955Y157458D01*
X180723Y156869D01*
X181617Y156498D01*
X182576Y156372D01*
X183536Y156498D01*
X184430Y156869D01*
X185197Y157458D01*
X185786Y158225D01*
X186157Y159119D01*
X186283Y160079D01*
X186157Y161038D01*
X185786Y161932D01*
X185197Y162700D01*
X184430Y163289D01*
X183536Y163659D01*
X182576Y163786D01*
D02*
G37*
G36*
X171376Y158352D02*
X170417Y158226D01*
X169523Y157856D01*
X168755Y157267D01*
X168166Y156499D01*
X167796Y155605D01*
X167670Y154646D01*
X167796Y153686D01*
X168166Y152792D01*
X168755Y152025D01*
X169523Y151436D01*
X170417Y151065D01*
X171376Y150939D01*
X172336Y151065D01*
X173230Y151436D01*
X173997Y152025D01*
X174586Y152792D01*
X174957Y153686D01*
X175083Y154646D01*
X174957Y155605D01*
X174586Y156499D01*
X173997Y157267D01*
X173230Y157856D01*
X172336Y158226D01*
X171376Y158352D01*
D02*
G37*
G36*
X182576Y152919D02*
X181617Y152793D01*
X180723Y152423D01*
X179955Y151834D01*
X179366Y151066D01*
X178996Y150172D01*
X178870Y149213D01*
X178996Y148253D01*
X179366Y147359D01*
X179955Y146592D01*
X180723Y146002D01*
X181617Y145632D01*
X182576Y145506D01*
X183536Y145632D01*
X184430Y146002D01*
X185197Y146592D01*
X185786Y147359D01*
X186157Y148253D01*
X186283Y149213D01*
X186157Y150172D01*
X185786Y151066D01*
X185197Y151834D01*
X184430Y152423D01*
X183536Y152793D01*
X182576Y152919D01*
D02*
G37*
G36*
X171376Y125754D02*
X170417Y125628D01*
X169523Y125257D01*
X168755Y124668D01*
X168166Y123901D01*
X167796Y123007D01*
X167670Y122047D01*
X167796Y121088D01*
X168166Y120194D01*
X168755Y119426D01*
X169523Y118837D01*
X170417Y118467D01*
X171376Y118341D01*
X172336Y118467D01*
X173230Y118837D01*
X173997Y119426D01*
X174586Y120194D01*
X174957Y121088D01*
X175083Y122047D01*
X174957Y123007D01*
X174586Y123901D01*
X173997Y124668D01*
X173230Y125257D01*
X172336Y125628D01*
X171376Y125754D01*
D02*
G37*
G36*
X182576Y120321D02*
X181617Y120195D01*
X180723Y119824D01*
X179955Y119235D01*
X179366Y118467D01*
X178996Y117574D01*
X178870Y116614D01*
X178996Y115655D01*
X179366Y114761D01*
X179955Y113993D01*
X180723Y113404D01*
X181617Y113034D01*
X182576Y112908D01*
X183536Y113034D01*
X184430Y113404D01*
X185197Y113993D01*
X185786Y114761D01*
X186157Y115655D01*
X186283Y116614D01*
X186157Y117574D01*
X185786Y118467D01*
X185197Y119235D01*
X184430Y119824D01*
X183536Y120195D01*
X182576Y120321D01*
D02*
G37*
G36*
X171376Y114888D02*
X170417Y114761D01*
X169523Y114391D01*
X168755Y113802D01*
X168166Y113034D01*
X167796Y112141D01*
X167670Y111181D01*
X167796Y110222D01*
X168166Y109328D01*
X168755Y108560D01*
X169523Y107971D01*
X170417Y107601D01*
X171376Y107474D01*
X172336Y107601D01*
X173230Y107971D01*
X173997Y108560D01*
X174586Y109328D01*
X174957Y110222D01*
X175083Y111181D01*
X174957Y112141D01*
X174586Y113034D01*
X173997Y113802D01*
X173230Y114391D01*
X172336Y114761D01*
X171376Y114888D01*
D02*
G37*
G36*
X182576Y109455D02*
X181617Y109328D01*
X180723Y108958D01*
X179955Y108369D01*
X179366Y107601D01*
X178996Y106707D01*
X178870Y105748D01*
X178996Y104789D01*
X179366Y103895D01*
X179955Y103127D01*
X180723Y102538D01*
X181617Y102168D01*
X182576Y102041D01*
X183536Y102168D01*
X184430Y102538D01*
X185197Y103127D01*
X185786Y103895D01*
X186157Y104789D01*
X186283Y105748D01*
X186157Y106707D01*
X185786Y107601D01*
X185197Y108369D01*
X184430Y108958D01*
X183536Y109328D01*
X182576Y109455D01*
D02*
G37*
G36*
X171376Y82289D02*
X170417Y82163D01*
X169523Y81793D01*
X168755Y81204D01*
X168166Y80436D01*
X167796Y79542D01*
X167670Y78583D01*
X167796Y77623D01*
X168166Y76729D01*
X168755Y75962D01*
X169523Y75373D01*
X170417Y75002D01*
X171376Y74876D01*
X172336Y75002D01*
X173230Y75373D01*
X173997Y75962D01*
X174586Y76729D01*
X174957Y77623D01*
X175083Y78583D01*
X174957Y79542D01*
X174586Y80436D01*
X173997Y81204D01*
X173230Y81793D01*
X172336Y82163D01*
X171376Y82289D01*
D02*
G37*
G36*
X182576Y76856D02*
X181617Y76730D01*
X180723Y76360D01*
X179955Y75771D01*
X179366Y75003D01*
X178996Y74109D01*
X178870Y73150D01*
X178996Y72190D01*
X179366Y71296D01*
X179955Y70529D01*
X180723Y69940D01*
X181617Y69569D01*
X182576Y69443D01*
X183536Y69569D01*
X184430Y69940D01*
X185197Y70529D01*
X185786Y71296D01*
X186157Y72190D01*
X186283Y73150D01*
X186157Y74109D01*
X185786Y75003D01*
X185197Y75771D01*
X184430Y76360D01*
X183536Y76730D01*
X182576Y76856D01*
D02*
G37*
G36*
X171376Y71423D02*
X170417Y71297D01*
X169523Y70927D01*
X168755Y70338D01*
X168166Y69570D01*
X167796Y68676D01*
X167670Y67716D01*
X167796Y66757D01*
X168166Y65863D01*
X168755Y65096D01*
X169523Y64506D01*
X170417Y64136D01*
X171376Y64010D01*
X172336Y64136D01*
X173230Y64506D01*
X173997Y65096D01*
X174586Y65863D01*
X174957Y66757D01*
X175083Y67716D01*
X174957Y68676D01*
X174586Y69570D01*
X173997Y70338D01*
X173230Y70927D01*
X172336Y71297D01*
X171376Y71423D01*
D02*
G37*
G36*
X182576Y65990D02*
X181617Y65864D01*
X180723Y65494D01*
X179955Y64904D01*
X179366Y64137D01*
X178996Y63243D01*
X178870Y62283D01*
X178996Y61324D01*
X179366Y60430D01*
X179955Y59662D01*
X180723Y59073D01*
X181617Y58703D01*
X182576Y58577D01*
X183536Y58703D01*
X184430Y59073D01*
X185197Y59662D01*
X185786Y60430D01*
X186157Y61324D01*
X186283Y62283D01*
X186157Y63243D01*
X185786Y64137D01*
X185197Y64904D01*
X184430Y65494D01*
X183536Y65864D01*
X182576Y65990D01*
D02*
G37*
G36*
X176976Y38340D02*
X175241Y38169D01*
X173573Y37663D01*
X172036Y36841D01*
X170688Y35735D01*
X169582Y34388D01*
X168761Y32850D01*
X168254Y31182D01*
X168084Y29447D01*
X168254Y27712D01*
X168761Y26044D01*
X169582Y24507D01*
X170688Y23159D01*
X172036Y22053D01*
X173573Y21231D01*
X175241Y20725D01*
X176976Y20554D01*
X178711Y20725D01*
X180379Y21231D01*
X181917Y22053D01*
X183265Y23159D01*
X184371Y24507D01*
X185192Y26044D01*
X185698Y27712D01*
X185869Y29447D01*
X185698Y31182D01*
X185192Y32850D01*
X184371Y34388D01*
X183265Y35735D01*
X181917Y36841D01*
X180379Y37663D01*
X178711Y38169D01*
X176976Y38340D01*
D02*
G37*
G36*
X196850Y15214D02*
X194470Y15026D01*
X192149Y14469D01*
X189944Y13556D01*
X187908Y12308D01*
X186093Y10758D01*
X184542Y8942D01*
X183295Y6907D01*
X182381Y4701D01*
X181824Y2380D01*
X181637Y0D01*
X181824Y-2380D01*
X182381Y-4701D01*
X183295Y-6907D01*
X184542Y-8942D01*
X186093Y-10758D01*
X187908Y-12308D01*
X189944Y-13556D01*
X192149Y-14469D01*
X194470Y-15026D01*
X196850Y-15214D01*
X199230Y-15026D01*
X201552Y-14469D01*
X203757Y-13556D01*
X205793Y-12308D01*
X207608Y-10758D01*
X209159Y-8942D01*
X210406Y-6907D01*
X211320Y-4701D01*
X211877Y-2380D01*
X212064Y0D01*
X211877Y2380D01*
X211320Y4701D01*
X210406Y6907D01*
X209159Y8942D01*
X207608Y10758D01*
X205793Y12308D01*
X203757Y13556D01*
X201552Y14469D01*
X199230Y15026D01*
X196850Y15214D01*
D02*
G37*
G36*
X0D02*
X-2380Y15026D01*
X-4701Y14469D01*
X-6907Y13556D01*
X-8942Y12308D01*
X-10758Y10758D01*
X-12308Y8942D01*
X-13556Y6907D01*
X-14469Y4701D01*
X-15026Y2380D01*
X-15214Y0D01*
X-15026Y-2380D01*
X-14469Y-4701D01*
X-13556Y-6907D01*
X-12308Y-8942D01*
X-10758Y-10758D01*
X-8942Y-12308D01*
X-6907Y-13556D01*
X-4701Y-14469D01*
X-2380Y-15026D01*
X0Y-15214D01*
X2380Y-15026D01*
X4701Y-14469D01*
X6907Y-13556D01*
X8942Y-12308D01*
X10758Y-10758D01*
X12308Y-8942D01*
X13556Y-6907D01*
X14469Y-4701D01*
X15026Y-2380D01*
X15214Y0D01*
X15026Y2380D01*
X14469Y4701D01*
X13556Y6907D01*
X12308Y8942D01*
X10758Y10758D01*
X8942Y12308D01*
X6907Y13556D01*
X4701Y14469D01*
X2380Y15026D01*
X0Y15214D01*
D02*
G37*
%LPD*%
D35*
X171376Y187244D02*
D03*
D36*
Y176378D02*
D03*
Y165512D02*
D03*
Y154646D02*
D03*
Y143780D02*
D03*
Y132913D02*
D03*
Y122047D02*
D03*
Y111181D02*
D03*
Y100315D02*
D03*
Y89449D02*
D03*
Y78583D02*
D03*
Y67716D02*
D03*
Y56850D02*
D03*
X182576Y181811D02*
D03*
Y170945D02*
D03*
Y160079D02*
D03*
Y149213D02*
D03*
Y138347D02*
D03*
Y127480D02*
D03*
Y116614D02*
D03*
Y105748D02*
D03*
Y94882D02*
D03*
Y84016D02*
D03*
Y73150D02*
D03*
Y62283D02*
D03*
D37*
X176976Y29447D02*
D03*
Y214647D02*
D03*
D38*
X0Y244094D02*
D03*
X196850D02*
D03*
Y0D02*
D03*
X0D02*
D03*
D39*
X120283Y59169D02*
D03*
X119189Y155638D02*
D03*
X64700Y166819D02*
D03*
X67652Y160914D02*
D03*
X64700Y155008D02*
D03*
X67652Y149102D02*
D03*
X64700Y143197D02*
D03*
X67652Y137291D02*
D03*
X64700Y131386D02*
D03*
X67652Y125480D02*
D03*
Y66425D02*
D03*
X64700Y60520D02*
D03*
X67652Y54614D02*
D03*
X64700Y48709D02*
D03*
X67652Y42803D02*
D03*
X64700Y36898D02*
D03*
X67652Y30992D02*
D03*
X64700Y25087D02*
D03*
X58794Y166819D02*
D03*
X61747Y160914D02*
D03*
X58794Y155008D02*
D03*
X61747Y149102D02*
D03*
X58794Y143197D02*
D03*
X61747Y137291D02*
D03*
X58794Y131386D02*
D03*
X61747Y125480D02*
D03*
Y66425D02*
D03*
X58794Y60520D02*
D03*
X61747Y54614D02*
D03*
X58794Y48709D02*
D03*
X61747Y42803D02*
D03*
X58794Y36898D02*
D03*
X61747Y30992D02*
D03*
X58794Y25087D02*
D03*
X52889Y166819D02*
D03*
X55841Y160914D02*
D03*
X52889Y155008D02*
D03*
X55841Y149102D02*
D03*
X52889Y143197D02*
D03*
X55841Y137291D02*
D03*
X52889Y131386D02*
D03*
X55841Y125480D02*
D03*
Y66425D02*
D03*
X52889Y60520D02*
D03*
X55841Y54614D02*
D03*
X52889Y48709D02*
D03*
X55841Y42803D02*
D03*
X52889Y36898D02*
D03*
X55841Y30992D02*
D03*
X52889Y25087D02*
D03*
X46983Y166819D02*
D03*
X49936Y160914D02*
D03*
X46983Y155008D02*
D03*
X49936Y149102D02*
D03*
X46983Y143197D02*
D03*
X49936Y137291D02*
D03*
X46983Y131386D02*
D03*
X49936Y125480D02*
D03*
Y66425D02*
D03*
X46983Y60520D02*
D03*
X49936Y54614D02*
D03*
X46983Y48709D02*
D03*
X49936Y42803D02*
D03*
X46983Y36898D02*
D03*
X49936Y30992D02*
D03*
X46983Y25087D02*
D03*
X44030Y160914D02*
D03*
Y149102D02*
D03*
Y137291D02*
D03*
X41078Y131386D02*
D03*
X44030Y125480D02*
D03*
Y66425D02*
D03*
Y54614D02*
D03*
Y42803D02*
D03*
X41078Y36898D02*
D03*
X44030Y30992D02*
D03*
X41078Y25087D02*
D03*
X35172Y131386D02*
D03*
X38125Y125480D02*
D03*
X35172Y36898D02*
D03*
X38125Y30992D02*
D03*
X35172Y25087D02*
D03*
X29267Y131386D02*
D03*
X32219Y125480D02*
D03*
X29267Y36898D02*
D03*
X32219Y30992D02*
D03*
X29267Y25087D02*
D03*
X23361Y131386D02*
D03*
X26314Y125480D02*
D03*
X23361Y36898D02*
D03*
X26314Y30992D02*
D03*
X23361Y25087D02*
D03*
X17456Y131386D02*
D03*
X20408Y125480D02*
D03*
X17456Y36898D02*
D03*
X20408Y30992D02*
D03*
X17456Y25087D02*
D03*
X11550Y131386D02*
D03*
X14503Y125480D02*
D03*
X11550Y36898D02*
D03*
X14503Y30992D02*
D03*
X11550Y25087D02*
D03*
X5645Y131386D02*
D03*
X8597Y125480D02*
D03*
X5645Y36898D02*
D03*
X8597Y30992D02*
D03*
X5645Y25087D02*
D03*
X-261Y131386D02*
D03*
X2692Y125480D02*
D03*
X-261Y36898D02*
D03*
X2692Y30992D02*
D03*
X-261Y25087D02*
D03*
X-6166Y131386D02*
D03*
X-3214Y125480D02*
D03*
X-6166Y36898D02*
D03*
X-3214Y30992D02*
D03*
X-6166Y25087D02*
D03*
X-12072Y131386D02*
D03*
X-9119Y125480D02*
D03*
X-12072Y36898D02*
D03*
X-9119Y30992D02*
D03*
X-12072Y25087D02*
D03*
M02*
